<?xml version="1.0" encoding="UTF-8"?>
<svg version="1.1" xmlns="http://www.w3.org/2000/svg" width="554" height="450">
<path d="M0 0 C2.12947284 0.00560929 4.25894961 0.00987307 6.38842773 0.01286316 C11.93842642 0.02420706 17.48818198 0.05358181 23.03808594 0.0869751 C28.72327386 0.11790392 34.40850184 0.1314168 40.09375 0.14648438 C51.20843897 0.17846351 62.32294911 0.22953019 73.4375 0.29296875 C73.45552028 1.88732798 73.46835077 3.4817464 73.47900391 5.07617188 C73.48670807 5.96405396 73.49441223 6.85193604 73.50234985 7.76672363 C73.14491034 21.69088498 64.04504454 34.0134867 54.4375 43.29296875 C42.86115275 53.36106094 28.94215717 56.37468392 13.98828125 56.50390625 C12.15168396 56.53198539 10.31509554 56.56064992 8.47851562 56.58984375 C5.61987667 56.63092247 2.76140147 56.66786317 -0.09741211 56.69433594 C-13.75336928 56.83135618 -26.1610079 57.46478231 -38.5625 63.79296875 C-39.234021 64.13408691 -39.90554199 64.47520508 -40.59741211 64.82666016 C-55.01079151 72.53594304 -64.69196549 85.19730858 -70.5625 100.29296875 C-71.04396484 101.46472656 -71.04396484 101.46472656 -71.53515625 102.66015625 C-76.39210906 116.80179559 -75.18749897 135.64700489 -68.828125 149.02734375 C-63.5259391 159.66597421 -57.62031022 168.63130224 -47.5625 175.29296875 C-47.8925 176.28296875 -48.2225 177.27296875 -48.5625 178.29296875 C-50.98901367 179.38037109 -50.98901367 179.38037109 -54.23046875 180.37890625 C-56.02049316 180.93578125 -56.02049316 180.93578125 -57.84667969 181.50390625 C-59.14749802 181.89289297 -60.44861168 182.28089327 -61.75 182.66796875 C-63.07064966 183.0689721 -64.39128761 183.470014 -65.71191406 183.87109375 C-79.76593479 188.09406135 -93.92750092 191.88236643 -108.5625 193.29296875 C-127.72849245 166.65154557 -134.70902516 133.26349718 -129.4375 100.91796875 C-123.78166878 69.96926033 -105.96850633 41.86710783 -80.5625 23.29296875 C-54.99667472 6.13954871 -30.28107597 -0.23720834 0 0 Z " fill="#8578FD" transform="translate(278.5625,96.70703125)"/>
<path d="M0 0 C1.01578125 -0.01224609 2.0315625 -0.02449219 3.078125 -0.03710938 C13.90933359 -0.05793862 25.29856233 1.1623542 33.703125 8.71875 C37.45913088 13.29503303 38.54182432 18.35246888 38 24.1875 C33.08554499 42.47611865 17.424196 56.89269135 3 68.1875 C1.33307305 69.6038604 -0.33358716 71.02053476 -2 72.4375 C-7.05607024 76.58026276 -12.35910563 80.30616248 -17.75 84 C-18.554375 84.55139648 -19.35875 85.10279297 -20.1875 85.67089844 C-23.61731074 87.99482235 -26.81965477 90.10550797 -30.60624695 91.82704163 C-32.49187952 92.83652451 -32.49187952 92.83652451 -34 94.1875 C-34.95623087 97.5659965 -34.95623087 97.5659965 -34.66430664 101.45947266 C-34.6525943 102.1852652 -34.64088196 102.91105774 -34.6288147 103.65884399 C-34.59997708 105.23279408 -34.55556601 106.80651874 -34.49739265 108.37965775 C-34.40919924 110.87868007 -34.37088949 113.37394535 -34.3467865 115.87435913 C-34.27094686 122.97898144 -34.11859057 130.08045521 -33.90112305 137.18212891 C-33.77143498 141.53147424 -33.7111479 145.87748202 -33.69210625 150.22864914 C-33.67099908 151.87884854 -33.62361668 153.52894452 -33.54854012 155.17757034 C-32.98600999 167.68293509 -32.98600999 167.68293509 -36.32444382 171.83455658 C-39.58903243 174.8450508 -43.23418607 177.09043017 -47.13474846 179.18305588 C-49.06632069 180.22321391 -50.93385533 181.33859573 -52.80482483 182.48379517 C-59.92510037 186.80764352 -67.23631622 190.20322685 -75 193.1875 C-75.65871094 193.47238281 -76.31742188 193.75726563 -76.99609375 194.05078125 C-83.68148581 196.85433276 -90.89576142 197.94154966 -98 199.1875 C-98.77085937 199.32285156 -99.54171875 199.45820313 -100.3359375 199.59765625 C-130.58951305 203.84272318 -163.11283345 195.78297208 -188 178.1875 C-198.69602212 170.08709237 -198.69602212 170.08709237 -202.48364258 165.3203125 C-205.03200198 162.25620906 -206.82296399 160.44073423 -210.79833984 159.58544922 C-214.11222084 159.3805463 -217.36820128 159.36538259 -220.6875 159.4375 C-233.29932031 159.54021407 -245.08121094 158.80404104 -255 150.1875 C-257.125 147.5 -257.125 147.5 -258 145.1875 C-257.67 144.1975 -257.34 143.2075 -257 142.1875 C-254.27849084 142.57628702 -253.20827668 142.94718075 -251.375 145.0625 C-242.55851572 152.9509333 -226.56886534 151.47098656 -215.4375 151 C-176.8222875 148.27079016 -138.88718863 134.22430383 -104 118.1875 C-103.04786621 117.75324707 -102.09573242 117.31899414 -101.11474609 116.87158203 C-64.14704265 99.92624552 -12.20240454 74.02983723 5.96875 35.11328125 C8.00102278 29.34747704 7.75330703 24.58035762 5.9375 18.8125 C1.63640166 12.98520547 -5.07554608 11.0308612 -11.984375 9.84765625 C-24.35403437 8.19987316 -39.02165379 8.19471793 -51 12.1875 C-52.39439664 12.25415376 -53.79169875 12.27288199 -55.1875 12.25 C-57.0746875 12.2190625 -57.0746875 12.2190625 -59 12.1875 C-59.33 11.1975 -59.66 10.2075 -60 9.1875 C-50.18585201 6.59566342 -40.39698443 4.09057748 -30.375 2.4375 C-29.67906738 2.32237061 -28.98313477 2.20724121 -28.26611328 2.08862305 C-18.84146589 0.6074151 -9.53862155 0.00605242 0 0 Z M-96.78515625 126.1640625 C-97.78409912 126.58494141 -98.78304199 127.00582031 -99.81225586 127.43945312 C-101.42112671 128.11911133 -101.42112671 128.11911133 -103.0625 128.8125 C-111.1199869 132.20512606 -119.18229518 135.50759811 -127.43969727 138.38525391 C-130.89817188 139.44442702 -130.89817188 139.44442702 -133 142.1875 C-119.09849802 145.2727546 -104.27707262 143.96127892 -91 139.1875 C-91 134.2375 -91 129.2875 -91 124.1875 C-93.00369866 124.1875 -94.97951579 125.39879868 -96.78515625 126.1640625 Z " fill="#07F8FD" transform="translate(387,141.8125)"/>
<path d="M0 0 C1.29400223 0.0028299 2.58800446 0.00565979 3.92121887 0.00857544 C7.32256128 0.01612654 10.72372648 0.03569905 14.125 0.0579834 C17.61130376 0.07862814 21.0976368 0.08761653 24.58398438 0.09765625 C31.39590505 0.11895521 38.20770959 0.15298487 45.01953125 0.1953125 C45.96114278 3.65112868 46.10296762 6.53955081 45.89453125 10.1328125 C45.85070312 11.15246094 45.806875 12.17210937 45.76171875 13.22265625 C44.22195878 19.38980013 38.08359427 22.82170222 33.14453125 26.3828125 C32.48380615 26.86129639 31.82308105 27.33978027 31.14233398 27.83276367 C29.1080609 29.2965805 27.06614966 30.74881526 25.01953125 32.1953125 C24.43413574 32.60942383 23.84874023 33.02353516 23.24560547 33.45019531 C14.90306334 39.29644932 6.21930085 44.56733126 -2.54296875 49.7578125 C-3.5786499 50.37825439 -4.61433105 50.99869629 -5.68139648 51.63793945 C-6.66825439 52.21503662 -7.6551123 52.79213379 -8.671875 53.38671875 C-9.55045166 53.90435791 -10.42902832 54.42199707 -11.33422852 54.95532227 C-17.30984559 57.75541075 -23.69260842 57.34221885 -30.15625 57.328125 C-31.12201462 57.32908173 -32.08777924 57.33003845 -33.08280945 57.33102417 C-35.11420762 57.3317023 -37.14560799 57.3298737 -39.17700195 57.32568359 C-42.29969066 57.32030091 -45.42223744 57.32565592 -48.54492188 57.33203125 C-50.51953157 57.33137098 -52.49414117 57.33009087 -54.46875 57.328125 C-55.40721268 57.33014923 -56.34567535 57.33217346 -57.31257629 57.33425903 C-58.1740477 57.33110687 -59.0355191 57.32795471 -59.9230957 57.32470703 C-60.68443314 57.32391144 -61.44577057 57.32311584 -62.23017883 57.32229614 C-63.98046875 57.1953125 -63.98046875 57.1953125 -64.98046875 56.1953125 C-65.62651847 43.63673616 -60.96560884 32.37939949 -53.98046875 22.1953125 C-53.5421875 21.54175781 -53.10390625 20.88820312 -52.65234375 20.21484375 C-44.28203521 9.19729907 -30.38530432 2.91453578 -17.12338257 0.59893799 C-11.42350493 -0.13306296 -5.73792528 -0.0480071 0 0 Z " fill="#3AC4FC" transform="translate(306.98046875,190.8046875)"/>
<path d="M0 0 C1.01578125 -0.01224609 2.0315625 -0.02449219 3.078125 -0.03710938 C13.90933359 -0.05793862 25.29856233 1.1623542 33.703125 8.71875 C37.45913088 13.29503303 38.54182432 18.35246888 38 24.1875 C33.08554499 42.47611865 17.424196 56.89269135 3 68.1875 C1.33307305 69.6038604 -0.33358716 71.02053476 -2 72.4375 C-7.05607024 76.58026276 -12.35910563 80.30616248 -17.75 84 C-18.554375 84.55139648 -19.35875 85.10279297 -20.1875 85.67089844 C-23.61731074 87.99482235 -26.81965477 90.10550797 -30.60624695 91.82704163 C-32.49187952 92.83652451 -32.49187952 92.83652451 -34 94.1875 C-34.95623087 97.5659965 -34.95623087 97.5659965 -34.66430664 101.45947266 C-34.6525943 102.1852652 -34.64088196 102.91105774 -34.6288147 103.65884399 C-34.59997708 105.23279408 -34.55556601 106.80651874 -34.49739265 108.37965775 C-34.40919924 110.87868007 -34.37088949 113.37394535 -34.3467865 115.87435913 C-34.27094686 122.97898144 -34.11859057 130.08045521 -33.90112305 137.18212891 C-33.77143498 141.53147424 -33.7111479 145.87748202 -33.69210625 150.22864914 C-33.67099908 151.87884854 -33.62361668 153.52894452 -33.54854012 155.17757034 C-32.98600999 167.68293509 -32.98600999 167.68293509 -36.32444382 171.83455658 C-39.58903243 174.8450508 -43.23418607 177.09043017 -47.13474846 179.18305588 C-49.06632069 180.22321391 -50.93385533 181.33859573 -52.80482483 182.48379517 C-59.92510037 186.80764352 -67.23631622 190.20322685 -75 193.1875 C-75.65871094 193.47238281 -76.31742187 193.75726563 -76.99609375 194.05078125 C-86.32049107 197.96101238 -96.94441173 199.71674149 -107 199.1875 C-107 198.5275 -107 197.8675 -107 197.1875 C-106.21496094 197.06632813 -105.42992187 196.94515625 -104.62109375 196.8203125 C-98.94444178 195.91483427 -93.51032377 194.85099397 -88 193.1875 C-85.61032473 192.68688063 -83.21902978 192.20534972 -80.8203125 191.75 C-80.21960938 191.564375 -79.61890625 191.37875 -79 191.1875 C-78.67 190.5275 -78.34 189.8675 -78 189.1875 C-76.04374741 188.67438457 -74.08467188 188.16589259 -72.10546875 187.75 C-69.97321485 187.2598311 -69.97321485 187.2598311 -68.06640625 186.1953125 C-65.64425103 185.01399672 -63.39636048 184.54998746 -60.75 184.0625 C-59.41195312 183.81113281 -59.41195312 183.81113281 -58.046875 183.5546875 C-57.37140625 183.43351563 -56.6959375 183.31234375 -56 183.1875 C-55.67 182.1975 -55.34 181.2075 -55 180.1875 C-53.22265625 178.80078125 -53.22265625 178.80078125 -51.0625 177.5 C-50.35222656 177.06300781 -49.64195312 176.62601563 -48.91015625 176.17578125 C-47 175.1875 -47 175.1875 -45 175.1875 C-44.95875 174.589375 -44.9175 173.99125 -44.875 173.375 C-44 171.1875 -44 171.1875 -41.0625 169.4375 C-38 168.1875 -38 168.1875 -36 168.1875 C-36 142.4475 -36 116.7075 -36 90.1875 C-37.65 89.8575 -39.3 89.5275 -41 89.1875 C-41 88.5275 -41 87.8675 -41 87.1875 C-42.98 87.5175 -44.96 87.8475 -47 88.1875 C-43.08781017 83.87060088 -38.61651643 80.66771765 -33.890625 77.28125 C-18.09498212 65.84008164 0.62199512 51.32151465 7 32.1875 C7.52776848 26.29070222 7.63675419 21.11471535 4 16.1875 C-10.8364253 5.91612864 -31.11237251 8.4783607 -48 11.1875 C-48.99 11.5175 -49.98 11.8475 -51 12.1875 C-52.39439664 12.25415376 -53.79169875 12.27288199 -55.1875 12.25 C-57.0746875 12.2190625 -57.0746875 12.2190625 -59 12.1875 C-59.495 10.7025 -59.495 10.7025 -60 9.1875 C-50.18585201 6.59566342 -40.39698443 4.09057748 -30.375 2.4375 C-29.67906738 2.32237061 -28.98313477 2.20724121 -28.26611328 2.08862305 C-18.84146589 0.6074151 -9.53862155 0.00605242 0 0 Z " fill="#10FCFA" transform="translate(387,141.8125)"/>
<path d="M0 0 C0 0.66 0 1.32 0 2 C-1.65 2.33 -3.3 2.66 -5 3 C-5 3.66 -5 4.32 -5 5 C-9.49656104 7.24828052 -13.07872966 7.16682272 -18 7 C-18 7.99 -18 8.98 -18 10 C-13.05 9.34 -8.1 8.68 -3 8 C-3.33 8.66 -3.66 9.32 -4 10 C-6.60738875 10.78074352 -9.16501525 11.45332372 -11.8125 12.0625 C-12.53759766 12.23587891 -13.26269531 12.40925781 -14.00976562 12.58789062 C-19.55077465 13.911041 -19.55077465 13.911041 -22.1784668 14.43139648 C-23.08012573 14.71285522 -23.08012573 14.71285522 -24 15 C-24.33 15.66 -24.66 16.32 -25 17 C-25.6290625 16.96519531 -26.258125 16.93039062 -26.90625 16.89453125 C-33.05928781 16.69993216 -37.37509578 17.50004257 -43 20 C-42.505 21.485 -42.505 21.485 -42 23 C-41.34 23.33 -40.68 23.66 -40 24 C-40.495 25.485 -40.495 25.485 -41 27 C-40.505 28.485 -40.505 28.485 -40 30 C-38.576875 30.2165625 -38.576875 30.2165625 -37.125 30.4375 C-34 31 -34 31 -32 32 C-31.71125 32.804375 -31.4225 33.60875 -31.125 34.4375 C-30.2449736 37.07506422 -30.2449736 37.07506422 -28.1875 38.1875 C-27.465625 38.455625 -26.74375 38.72375 -26 39 C-21.15384615 40.84615385 -21.15384615 40.84615385 -19 43 C-19 43.99 -19 44.98 -19 46 C-18.360625 46.103125 -17.72125 46.20625 -17.0625 46.3125 C-12.93522674 47.23903073 -8.99357051 48.61660629 -5 50 C-5 50.66 -5 51.32 -5 52 C-3.515 52.495 -3.515 52.495 -2 53 C-2.99 53.495 -2.99 53.495 -4 54 C-6.49376059 53.13022496 -8.84256392 52.1954077 -11.25 51.125 C-11.96438232 50.80837402 -12.67876465 50.49174805 -13.41479492 50.16552734 C-25.21093275 44.76935231 -38.41473929 37.0981172 -46.65039062 26.97045898 C-49.47002569 23.66312114 -51.56732421 21.34185822 -55.88427734 20.31176758 C-59.19612185 20.09573326 -62.43273364 20.09004575 -65.75 20.1875 C-78.35816142 20.34215619 -90.08162063 19.61618514 -100 11 C-102.125 8.3125 -102.125 8.3125 -103 6 C-102.67 5.01 -102.34 4.02 -102 3 C-99.27849084 3.38878702 -98.20827668 3.75968075 -96.375 5.875 C-87.55851572 13.7634333 -71.56886534 12.28348656 -60.4375 11.8125 C-43.92809767 10.65891501 -27.89728006 6.99195932 -12.07250977 2.28662109 C-11.07533936 1.99094238 -10.07816895 1.69526367 -9.05078125 1.390625 C-8.17075439 1.12282227 -7.29072754 0.85501953 -6.3840332 0.57910156 C-4 0 -4 0 0 0 Z " fill="#18F3F9" transform="translate(232,281)"/>
<path d="M0 0 C3.68169211 2.45446141 4.36981964 4.96170157 5.8125 8.9375 C11.04151348 22.59729716 17.54973808 34.75372263 30 43 C29.67 43.99 29.34 44.98 29 46 C26.57348633 47.08740234 26.57348633 47.08740234 23.33203125 48.0859375 C22.13868164 48.4571875 20.94533203 48.8284375 19.71582031 49.2109375 C18.41500198 49.59992422 17.11388832 49.98792452 15.8125 50.375 C14.49185034 50.77600335 13.17121239 51.17704525 11.85058594 51.578125 C-2.20343479 55.8010926 -16.36500092 59.58939768 -31 61 C-38.40775252 50.70295589 -44.16686249 39.47064697 -48 27.375 C-48.20761963 26.7245874 -48.41523926 26.0741748 -48.62915039 25.40405273 C-49.78574282 21.50845522 -50.19959304 18.05423369 -50 14 C-49.34 14 -48.68 14 -48 14 C-47.34 16.31 -46.68 18.62 -46 21 C-44.35 21.33 -42.7 21.66 -41 22 C-40.97287847 23.916588 -40.95354903 25.8332873 -40.9375 27.75 C-40.92589844 28.81734375 -40.91429687 29.8846875 -40.90234375 30.984375 C-40.98489913 33.53368501 -41.25382442 35.57933591 -42 38 C-41.34 38 -40.68 38 -40 38 C-39.7525 38.639375 -39.505 39.27875 -39.25 39.9375 C-38.18437567 42.18741541 -38.18437567 42.18741541 -35.875 42.75 C-35.25625 42.8325 -34.6375 42.915 -34 43 C-32.875 48.75 -32.875 48.75 -34 51 C-31.53090024 54.63192502 -31.53090024 54.63192502 -27.875 56.875 C-23.53637308 57.06363595 -19.30145828 56.5429025 -15 56 C-14.67 55.01 -14.34 54.02 -14 53 C-12.35 53 -10.7 53 -9 53 C-8.505 52.01 -8.505 52.01 -8 51 C-5.27734375 50.5859375 -5.27734375 50.5859375 -1.9375 50.375 C-0.83277344 50.30023438 0.27195313 50.22546875 1.41015625 50.1484375 C2.26480469 50.09945312 3.11945313 50.05046875 4 50 C4.99 47.69 5.98 45.38 7 43 C7.99 43.33 8.98 43.66 10 44 C9.67 44.99 9.34 45.98 9 47 C9.99 47 10.98 47 12 47 C13.59138085 42.82262526 14.21278058 39.46839215 14 35 C13.01 35 12.02 35 11 35 C11 34.34 11 33.68 11 33 C11.99 33 12.98 33 14 33 C13.34 32.01 12.68 31.02 12 30 C10.68 30.99 9.36 31.98 8 33 C7.67 32.01 7.34 31.02 7 30 C7.99 29.01 8.98 28.02 10 27 C9.01 26.67 8.02 26.34 7 26 C6.690625 24.906875 6.38125 23.81375 6.0625 22.6875 C4.93766425 18.78365828 3.87229006 17.68698102 1 15 C0.3125 13.125 0.3125 13.125 0 11 C-0.20625 10.030625 -0.4125 9.06125 -0.625 8.0625 C-0.99485475 5.04201955 -0.77280099 2.9194704 0 0 Z M-45 23 C-44 26 -44 26 -44 26 Z " fill="#4CC0E2" transform="translate(201,229)"/>
<path d="M0 0 C0 0.66 0 1.32 0 2 C-0.66 2 -1.32 2 -2 2 C-2.33 2.99 -2.66 3.98 -3 5 C-4.65204456 5.70211894 -6.31923769 6.36971413 -8 7 C-8.33 7.66 -8.66 8.32 -9 9 C-11.55554217 9.84741068 -14.13765919 10.47171926 -16.75 11.12109375 C-17.4925 11.41113281 -18.235 11.70117188 -19 12 C-19.33 12.99 -19.66 13.98 -20 15 C-16.30252043 14.13445365 -12.79052514 12.89934889 -9.21875 11.62109375 C-7 11 -7 11 -3 11 C-1.34502644 14.30994713 -1.89915665 17.99123 -1.9375 21.625 C-1.94201172 22.42679687 -1.94652344 23.22859375 -1.95117188 24.0546875 C-1.96296832 26.03649006 -1.98090395 28.01825433 -2 30 C-6.2681282 31.5479251 -10.31751573 32.45118214 -14.8125 33.0625 C-18.72681211 33.28810777 -18.72681211 33.28810777 -22 35 C-25.7221654 35.25389068 -29.45771037 35.1852354 -33.1875 35.1875 C-34.22970703 35.19974609 -35.27191406 35.21199219 -36.34570312 35.22460938 C-46.30173515 35.24359736 -46.30173515 35.24359736 -51 33 C-52.375 30.875 -52.375 30.875 -53 29 C-52.34 29 -51.68 29 -51 29 C-51 28.34 -51 27.68 -51 27 C-56.28 27.33 -61.56 27.66 -67 28 C-64.883032 25.883032 -63.91417143 25.503357 -61.125 24.66015625 C-60.31764404 24.40758057 -59.51028809 24.15500488 -58.6784668 23.89477539 C-57.79457275 23.62012451 -56.91067871 23.34547363 -56 23.0625 C-38.98927255 17.57857327 -22.37356556 10.58916006 -6.54174805 2.28540039 C-2.17849091 0 -2.17849091 0 0 0 Z M-8.78515625 14.9765625 C-9.78409912 15.39744141 -10.78304199 15.81832031 -11.81225586 16.25195312 C-13.42112671 16.93161133 -13.42112671 16.93161133 -15.0625 17.625 C-23.1199869 21.01762606 -31.18229518 24.32009811 -39.43969727 27.19775391 C-42.89817188 28.25692702 -42.89817188 28.25692702 -45 31 C-31.09849802 34.0852546 -16.27707262 32.77377892 -3 28 C-3 23.05 -3 18.1 -3 13 C-5.00369866 13 -6.97951579 14.21129868 -8.78515625 14.9765625 Z " fill="#21F3F2" transform="translate(299,253)"/>
<path d="M0 0 C0 0.33 0 0.66 0 1 C-1.155 1.144375 -2.31 1.28875 -3.5 1.4375 C-4.58861328 1.57671875 -4.58861328 1.57671875 -5.69921875 1.71875 C-7.19986744 1.90219093 -8.70258376 2.06963662 -10.20703125 2.21875 C-13.85556852 2.59781881 -15.89243385 2.92828923 -19 5 C-19.598125 4.835 -20.19625 4.67 -20.8125 4.5 C-23.93567291 3.78613191 -26.03666827 4.92815661 -29 6 C-29.99 6 -30.98 6 -32 6 C-34.16666667 6.66666667 -34.16666667 6.66666667 -36 8 C-36.80528889 10.05000871 -36.80528889 10.05000871 -37 12 C-38.32 11.67 -39.64 11.34 -41 11 C-41.33 11.66 -41.66 12.32 -42 13 C-42.99 12.67 -43.98 12.34 -45 12 C-50.03681677 12.53965894 -54.72207071 15.64689839 -58.125 19.25 C-60 21 -60 21 -62.4375 20.9375 C-65.27668607 20.74347333 -65.27668607 20.74347333 -67.8125 23.3125 C-70.3156357 25.81024282 -70.3156357 25.81024282 -70 29 C-71.32 29 -72.64 29 -74 29 C-76.73219193 30.91859167 -76.73219193 30.91859167 -79 33 C-78.67 33.99 -78.34 34.98 -78 36 C-78.763125 36.103125 -79.52625 36.20625 -80.3125 36.3125 C-83.17059424 37.04364039 -84.15742885 37.76951913 -86 40 C-85.67 40.66 -85.34 41.32 -85 42 C-87 44 -87 44 -89 44.375 C-91.13400402 44.7970734 -91.13400402 44.7970734 -92 46.6875 C-92.33 47.450625 -92.66 48.21375 -93 49 C-96.55414013 54.61783439 -96.55414013 54.61783439 -98.5859375 56.359375 C-100.51179353 58.5937936 -100.4984984 60.27687537 -100.6875 63.1875 C-100.78611328 64.53908203 -100.78611328 64.53908203 -100.88671875 65.91796875 C-100.92410156 66.60503906 -100.96148437 67.29210937 -101 68 C-101.7425 68.020625 -102.485 68.04125 -103.25 68.0625 C-106.36251116 69.12358335 -106.71170067 69.6496248 -108.3125 72.375 C-110.21101479 75.78686855 -110.21101479 75.78686855 -110 79 C-110.33 79.99 -110.66 80.98 -111 82 C-110.34 82.33 -109.68 82.66 -109 83 C-109.66 83.99 -110.32 84.98 -111 86 C-111 86.99 -111 87.98 -111 89 C-111.66 89 -112.32 89 -113 89 C-113 89.99 -113 90.98 -113 92 C-113.99 91.67 -114.98 91.34 -116 91 C-115.47916667 89.11197917 -114.95833333 87.22395833 -114.4375 85.3359375 C-113.8926682 82.94167945 -113.8926682 82.94167945 -114.15625 80.234375 C-113.94611796 75.88464179 -112.40169737 72.74389522 -110.5 68.875 C-109.95533081 67.75013184 -109.95533081 67.75013184 -109.3996582 66.60253906 C-94.44020578 36.39278291 -68.11049328 14.32263696 -36.5 3.1875 C-23.97372713 -0.68905181 -13.05811138 -3.10800939 0 0 Z " fill="#AB4EE4" transform="translate(269,99)"/>
<path d="M0 0 C1.01578125 -0.01224609 2.0315625 -0.02449219 3.078125 -0.03710938 C13.90933359 -0.05793862 25.29856233 1.1623542 33.703125 8.71875 C37.45913088 13.29503303 38.54182432 18.35246888 38 24.1875 C35.53054824 33.37730058 30.05149563 43.81983625 22 49.1875 C23.00193437 45.39446275 23.81024227 42.47213659 26 39.1875 C26.66 39.1875 27.32 39.1875 28 39.1875 C28.66 36.2175 29.32 33.2475 30 30.1875 C30.66 30.1875 31.32 30.1875 32 30.1875 C32 29.5275 32 28.8675 32 28.1875 C32.66 28.1875 33.32 28.1875 34 28.1875 C34.85720914 19.19151859 34.85720914 19.19151859 31.8125 11 C29.18103802 8.36853802 27.56420268 7.10400926 24 6.1875 C24 5.5275 24 4.8675 24 4.1875 C19.56251365 4.15853178 15.12505153 4.14071212 10.6875 4.125 C8.79354492 4.11243164 8.79354492 4.11243164 6.86132812 4.09960938 C5.65283203 4.09638672 4.44433594 4.09316406 3.19921875 4.08984375 C1.52605591 4.08198853 1.52605591 4.08198853 -0.1809082 4.07397461 C-3.08052062 4.06000746 -3.08052062 4.06000746 -6 5.1875 C-5.505 6.6725 -5.505 6.6725 -5 8.1875 C-3.34561387 8.88408363 -1.67745682 9.54846883 0 10.1875 C1.8125 11.8125 1.8125 11.8125 3 13.1875 C1 14.1875 1 14.1875 -1.28515625 13.4453125 C-2.65994141 12.88457031 -2.65994141 12.88457031 -4.0625 12.3125 C-9.15274056 10.39788293 -13.58256453 9.38879405 -19 9.1875 C-20.42892578 9.12755859 -20.42892578 9.12755859 -21.88671875 9.06640625 C-31.32580166 8.86903305 -41.96437428 9.17562476 -51 12.1875 C-52.39439664 12.25415376 -53.79169875 12.27288199 -55.1875 12.25 C-57.0746875 12.2190625 -57.0746875 12.2190625 -59 12.1875 C-59.33 11.1975 -59.66 10.2075 -60 9.1875 C-50.18585201 6.59566342 -40.39698443 4.09057748 -30.375 2.4375 C-29.67906738 2.32237061 -28.98313477 2.20724121 -28.26611328 2.08862305 C-18.84146589 0.6074151 -9.53862155 0.00605242 0 0 Z " fill="#2AEDEC" transform="translate(387,141.8125)"/>
<path d="M0 0 C7.26 0 14.52 0 22 0 C22.64153351 14.91565408 18.80375645 25.7947526 9.0859375 37.2578125 C-1.72760374 48.58833579 -15.70523329 54.78598269 -31.42797852 55.15771484 C-33.07824569 55.17901293 -34.72856419 55.19656955 -36.37890625 55.2109375 C-38.20638885 55.23902634 -40.03386268 55.26769092 -41.86132812 55.296875 C-44.70222528 55.33787412 -47.54296231 55.37481742 -50.3840332 55.40136719 C-61.64452016 55.51535763 -72.07495785 55.99870366 -83 59 C-83 58.01 -83 57.02 -83 56 C-68.27471809 51.0605067 -52.08018929 51.78418992 -36.72216797 52.03637695 C-33.01534351 52.08316042 -29.58036261 52.01820721 -26 51 C-25.484375 50.484375 -24.96875 49.96875 -24.4375 49.4375 C-23.963125 48.963125 -23.48875 48.48875 -23 48 C-20.33333333 48 -17.66666667 48 -15 48 C-12.98504093 47.38001259 -10.9812585 46.72045764 -9 46 C-9 45.34 -9 44.68 -9 44 C-7.35 44 -5.7 44 -4 44 C-4.33 43.01 -4.66 42.02 -5 41 C-4.34 40.01 -3.68 39.02 -3 38 C-2.05125 38.020625 -1.1025 38.04125 -0.125 38.0625 C3.0678423 38.30469109 3.0678423 38.30469109 5.3125 36.25 C6.95208905 34.06388127 7.61794563 32.67438062 8 30 C9.485 30.495 9.485 30.495 11 31 C10.9175 30.0925 10.835 29.185 10.75 28.25 C11 25 11 25 12.9375 23.25 C16.16728932 19.72659347 15.82331245 15.62921387 16 11 C16.99 11 17.98 11 19 11 C19.33 8.03 19.66 5.06 20 2 C13.4 1.67 6.8 1.34 0 1 C0 0.67 0 0.34 0 0 Z " fill="#6D8FDA" transform="translate(329,98)"/>
<path d="M0 0 C2.72150916 0.38878702 3.79172332 0.75968075 5.625 2.875 C12.74114558 9.24207762 23.97990751 8.65122309 33 9 C33 9.66 33 10.32 33 11 C28.38 11 23.76 11 19 11 C19 11.66 19 12.32 19 13 C22.86323338 14.28774446 26.57490537 14.23382793 30.60546875 14.31640625 C31.44467361 14.33718735 32.28387848 14.35796844 33.14851379 14.37937927 C35.82809294 14.44474018 38.50776969 14.50369714 41.1875 14.5625 C43.00456737 14.60569802 44.82162488 14.64931273 46.63867188 14.69335938 C51.09234799 14.8004078 55.54612226 14.90171319 60 15 C59.505 17.475 59.505 17.475 59 20 C59.99 20.33 60.98 20.66 62 21 C61.505 22.485 61.505 22.485 61 24 C61.495 25.485 61.495 25.485 62 27 C63.423125 27.2165625 63.423125 27.2165625 64.875 27.4375 C68 28 68 28 70 29 C70.28875 29.804375 70.5775 30.60875 70.875 31.4375 C71.7550264 34.07506422 71.7550264 34.07506422 73.8125 35.1875 C74.534375 35.455625 75.25625 35.72375 76 36 C80.84615385 37.84615385 80.84615385 37.84615385 83 40 C83 40.99 83 41.98 83 43 C83.639375 43.103125 84.27875 43.20625 84.9375 43.3125 C89.06477326 44.23903073 93.00642949 45.61660629 97 47 C97 47.66 97 48.32 97 49 C98.485 49.495 98.485 49.495 100 50 C99.01 50.495 99.01 50.495 98 51 C95.50623941 50.13022496 93.15743608 49.1954077 90.75 48.125 C90.03561768 47.80837402 89.32123535 47.49174805 88.58520508 47.16552734 C76.78906725 41.76935231 63.58526071 34.0981172 55.34960938 23.97045898 C52.52997431 20.66312114 50.43267579 18.34185822 46.11572266 17.31176758 C42.80387815 17.09573326 39.56726636 17.09004575 36.25 17.1875 C23.64183858 17.34215619 11.91837937 16.61618514 2 8 C-0.125 5.3125 -0.125 5.3125 -1 3 C-0.67 2.01 -0.34 1.02 0 0 Z " fill="#3DD5EA" transform="translate(130,284)"/>
<path d="M0 0 C0.99 0.33 1.98 0.66 3 1 C-16.93803148 16.69316026 -16.93803148 16.69316026 -25.63670349 20.65731812 C-27.50856044 21.65857371 -27.50856044 21.65857371 -29 23 C-29.95623087 26.3784965 -29.95623087 26.3784965 -29.66430664 30.27197266 C-29.6525943 30.9977652 -29.64088196 31.72355774 -29.6288147 32.47134399 C-29.59997708 34.04529408 -29.55556601 35.61901874 -29.49739265 37.19215775 C-29.40919924 39.69118007 -29.37088949 42.18644535 -29.3467865 44.68685913 C-29.27094686 51.79148144 -29.11859057 58.89295521 -28.90112305 65.99462891 C-28.77143498 70.34397424 -28.7111479 74.68998202 -28.69210625 79.04114914 C-28.67099908 80.69134854 -28.62361668 82.34144452 -28.54854012 83.99007034 C-27.98600999 96.49543509 -27.98600999 96.49543509 -31.32444382 100.64705658 C-34.58903243 103.6575508 -38.23418607 105.90293017 -42.13474846 107.99555588 C-44.06632069 109.03571391 -45.93385533 110.15109573 -47.80482483 111.29629517 C-54.92510037 115.62014352 -62.23631622 119.01572685 -70 122 C-70.65871094 122.28488281 -71.31742187 122.56976563 -71.99609375 122.86328125 C-81.32049107 126.77351238 -91.94441173 128.52924149 -102 128 C-102 127.34 -102 126.68 -102 126 C-101.21496094 125.87882812 -100.42992187 125.75765625 -99.62109375 125.6328125 C-93.94444178 124.72733427 -88.51032377 123.66349397 -83 122 C-80.61032473 121.49938063 -78.21902978 121.01784972 -75.8203125 120.5625 C-75.21960938 120.376875 -74.61890625 120.19125 -74 120 C-73.67 119.34 -73.34 118.68 -73 118 C-71.04374741 117.48688457 -69.08467188 116.97839259 -67.10546875 116.5625 C-64.97321485 116.0723311 -64.97321485 116.0723311 -63.06640625 115.0078125 C-60.64425103 113.82649672 -58.39636048 113.36248746 -55.75 112.875 C-54.85796875 112.70742188 -53.9659375 112.53984375 -53.046875 112.3671875 C-52.37140625 112.24601562 -51.6959375 112.12484375 -51 112 C-50.505 110.515 -50.505 110.515 -50 109 C-48.22265625 107.61328125 -48.22265625 107.61328125 -46.0625 106.3125 C-45.35222656 105.87550781 -44.64195312 105.43851562 -43.91015625 104.98828125 C-42 104 -42 104 -40 104 C-39.95875 103.401875 -39.9175 102.80375 -39.875 102.1875 C-39 100 -39 100 -36.0625 98.25 C-33 97 -33 97 -31 97 C-31.00222061 96.05230743 -31.00444122 95.10461487 -31.00672913 94.12820435 C-31.02697309 85.21084586 -31.04197821 76.29349202 -31.05181217 67.3761158 C-31.0570378 62.79126149 -31.06412967 58.20642569 -31.07543945 53.62158203 C-31.08627967 49.19958183 -31.09227925 44.77759946 -31.09487724 40.35558701 C-31.09672944 38.66583856 -31.10034614 36.97609113 -31.10573006 35.28635025 C-31.11295551 32.92541622 -31.1139903 30.56455653 -31.11352539 28.20361328 C-31.11712067 27.50014771 -31.12071594 26.79668213 -31.12442017 26.07189941 C-31.11405216 21.22810432 -31.11405216 21.22810432 -30 19 C-29.01 19 -28.02 19 -27 19 C-27 18.34 -27 17.68 -27 17 C-26.01 17 -25.02 17 -24 17 C-23.505 15.515 -23.505 15.515 -23 14 C-21.02 14 -19.04 14 -17 14 C-17 13.34 -17 12.68 -17 12 C-13.35229798 7.68907944 -10.10184705 6.02148657 -5 4 C-4.34 3.34 -3.68 2.68 -3 2 C-2.01 2 -1.02 2 0 2 C0 1.34 0 0.68 0 0 Z " fill="#33ECEF" transform="translate(382,213)"/>
<path d="M0 0 C0.33 0 0.66 0 1 0 C1 5.61 1 11.22 1 17 C-3.53565578 18.51188526 -7.16517704 19.43046408 -11.8125 20.0625 C-15.72681211 20.28810777 -15.72681211 20.28810777 -19 22 C-22.7221654 22.25389068 -26.45771037 22.1852354 -30.1875 22.1875 C-31.22970703 22.19974609 -32.27191406 22.21199219 -33.34570312 22.22460938 C-43.30173515 22.24359736 -43.30173515 22.24359736 -48 20 C-49.375 17.875 -49.375 17.875 -50 16 C-49.34 16 -48.68 16 -48 16 C-48 15.34 -48 14.68 -48 14 C-49.98 14 -51.96 14 -54 14 C-53.01 13.67 -52.02 13.34 -51 13 C-51 12.34 -51 11.68 -51 11 C-50.20335937 10.81824219 -49.40671875 10.63648438 -48.5859375 10.44921875 C-42.97042806 9.11707235 -38.14998799 7.63779873 -33 5 C-30.125 4.8125 -30.125 4.8125 -28 5 C-27.67 6.32 -27.34 7.64 -27 9 C-27.99 9 -28.98 9 -30 9 C-30 9.66 -30 10.32 -30 11 C-32.90600261 12.25664978 -34.79604584 13 -38 13 C-38 13.99 -38 14.98 -38 16 C-38.99 16.33 -39.98 16.66 -41 17 C-36.03320479 18.43614707 -31.07071389 18.22389338 -25.9375 18.25 C-24.45733398 18.2809375 -24.45733398 18.2809375 -22.94726562 18.3125 C-16.66275319 18.34542475 -11.27939797 17.53386923 -5.27954102 15.64746094 C-3 15 -3 15 0 15 C0 10.05 0 5.1 0 0 Z " fill="#16F9F6" transform="translate(296,266)"/>
<path d="M0 0 C-0.33 0.66 -0.66 1.32 -1 2 C-1.99 2 -2.98 2 -4 2 C-4.433125 2.9590625 -4.433125 2.9590625 -4.875 3.9375 C-6 6 -6 6 -8 7 C-8.495 6.01 -8.495 6.01 -9 5 C-9.66 5.66 -10.32 6.32 -11 7 C-12.99952758 7.04346799 -15.00039988 7.039992 -17 7 C-19.26566343 7.43941523 -19.26566343 7.43941523 -21 8 C-20.814375 8.78375 -20.62875 9.5675 -20.4375 10.375 C-20 13 -20 13 -21 15 C-22.92578125 15.67578125 -22.92578125 15.67578125 -25.3125 16.3125 C-29.66418565 17.66681607 -31.35857168 19.22653098 -34 23 C-34.86625 23.495 -35.7325 23.99 -36.625 24.5 C-39.5409411 26.34164701 -39.93196965 27.79590894 -41 31 C-41.66 31.66 -42.32 32.32 -43 33 C-43.6425235 35.06874034 -43.6425235 35.06874034 -44 37 C-44.66 37 -45.32 37 -46 37 C-46.66 40.63 -47.32 44.26 -48 48 C-48.66 48 -49.32 48 -50 48 C-49.33364649 34.67292986 -43.20692217 23.01246896 -33.68359375 13.74609375 C-24.12754087 5.66256267 -12.72072718 -0.51921335 0 0 Z " fill="#53A9EA" transform="translate(293,192)"/>
<path d="M0 0 C0.99 0.66 1.98 1.32 3 2 C3 2.66 3 3.32 3 4 C1.8553125 4.1546875 1.8553125 4.1546875 0.6875 4.3125 C-2.17059424 5.04364039 -3.15742885 5.76951913 -5 8 C-4.67 8.66 -4.34 9.32 -4 10 C-6 12 -6 12 -8 12.375 C-10.13400402 12.7970734 -10.13400402 12.7970734 -11 14.6875 C-11.33 15.450625 -11.66 16.21375 -12 17 C-15.55414013 22.61783439 -15.55414013 22.61783439 -17.5859375 24.359375 C-19.51179353 26.5937936 -19.4984984 28.27687537 -19.6875 31.1875 C-19.75324219 32.08855469 -19.81898438 32.98960937 -19.88671875 33.91796875 C-19.92410156 34.60503906 -19.96148437 35.29210937 -20 36 C-20.7425 36.020625 -21.485 36.04125 -22.25 36.0625 C-25.36251116 37.12358335 -25.71170067 37.6496248 -27.3125 40.375 C-29.21101479 43.78686855 -29.21101479 43.78686855 -29 47 C-29.33 47.99 -29.66 48.98 -30 50 C-29.34 50.33 -28.68 50.66 -28 51 C-28.66 51.99 -29.32 52.98 -30 54 C-30 54.99 -30 55.98 -30 57 C-30.66 57 -31.32 57 -32 57 C-32 57.99 -32 58.98 -32 60 C-32.99 59.67 -33.98 59.34 -35 59 C-34.47916667 57.11197917 -33.95833333 55.22395833 -33.4375 53.3359375 C-32.8926682 50.94167945 -32.8926682 50.94167945 -33.15625 48.234375 C-32.9461002 43.88427418 -31.40108916 40.74446577 -29.5 36.875 C-29.1397876 36.12798828 -28.7795752 35.38097656 -28.40844727 34.61132812 C-25.14169381 27.9940401 -21.35265066 21.96734365 -17 16 C-16.401875 15.1440625 -15.80375 14.288125 -15.1875 13.40625 C-11.57142889 8.43415223 -8.48339607 5.74169804 -3 3 C-1.14140661 1.39827526 -1.14140661 1.39827526 0 0 Z " fill="#A355EB" transform="translate(188,131)"/>
<path d="M0 0 C-1.32 0.99 -2.64 1.98 -4 3 C-2.82812134 3.01401855 -2.82812134 3.01401855 -1.63256836 3.02832031 C1.93307764 3.08225312 5.49744415 3.1658581 9.0625 3.25 C10.29162109 3.26417969 11.52074219 3.27835938 12.78710938 3.29296875 C19.61429604 3.47698995 24.55712155 3.67097621 30 8 C30.495 9.485 30.495 9.485 31 11 C30.41734375 10.80664062 29.8346875 10.61328125 29.234375 10.4140625 C12.88071967 5.219977 -6.40621283 3.46873761 -23 9 C-24.39439664 9.06665376 -25.79169875 9.08538199 -27.1875 9.0625 C-29.0746875 9.0315625 -29.0746875 9.0315625 -31 9 C-31.33 8.01 -31.66 7.02 -32 6 C-28.79265991 5.18354527 -25.58396284 4.37255112 -22.375 3.5625 C-21.47136719 3.33240234 -20.56773437 3.10230469 -19.63671875 2.86523438 C-13.03388852 1.20247786 -6.85012721 -0.16309827 0 0 Z " fill="#52E5E9" transform="translate(359,145)"/>
<path d="M0 0 C2.75195334 0.28468483 3.79266519 0.76076753 5.625 2.875 C12.74114558 9.24207762 23.97990751 8.65122309 33 9 C33 9.66 33 10.32 33 11 C28.38 11 23.76 11 19 11 C19 11.66 19 12.32 19 13 C22.3021228 14.1007076 24.94083279 14.20627072 28.41796875 14.31640625 C29.67158203 14.35830078 30.92519531 14.40019531 32.21679688 14.44335938 C34.18229492 14.50233398 34.18229492 14.50233398 36.1875 14.5625 C37.52279978 14.60570992 38.85808652 14.649325 40.19335938 14.69335938 C43.46213297 14.79956502 46.73098333 14.90160997 50 15 C50 15.33 50 15.66 50 16 C45.6075369 16.07482575 41.21542328 16.12891683 36.82250977 16.16479492 C35.33188402 16.17977042 33.84130149 16.20015819 32.35083008 16.22631836 C21.00919555 16.42022495 11.79222562 15.92241157 2.59765625 8.62890625 C0.36344125 6.35099023 -0.40986008 4.09823457 -1 1 C-0.67 0.67 -0.34 0.34 0 0 Z " fill="#3CE4E6" transform="translate(130,284)"/>
<path d="M0 0 C31.02 0 62.04 0 94 0 C94 3.3 94 6.6 94 10 C93.67 10 93.34 10 93 10 C93 7.03 93 4.06 93 1 C91.7845752 1.06058594 90.56915039 1.12117188 89.31689453 1.18359375 C48.21670179 3.20854374 48.21670179 3.20854374 27.875 3.1875 C26.85433441 3.18858765 26.85433441 3.18858765 25.81304932 3.18969727 C7.41038511 3.18745092 7.41038511 3.18745092 1 2 C0.67 1.34 0.34 0.68 0 0 Z " fill="#8E6CD0" transform="translate(258,97)"/>
<path d="M0 0 C0.99 0.33 1.98 0.66 3 1 C-16.95312486 16.70504021 -16.95312486 16.70504021 -25.62281799 20.6473999 C-27.4970938 21.65035151 -27.4970938 21.65035151 -29 23 C-29.74131733 25.83658832 -29.95104422 27.58812096 -29.88647461 30.43066406 C-29.90263824 31.54344727 -29.90263824 31.54344727 -29.91912842 32.67871094 C-29.94648942 35.12536325 -29.9246574 37.56896352 -29.90234375 40.015625 C-29.91172806 41.7138663 -29.92418538 43.41209317 -29.93959045 45.11029053 C-29.97184456 49.57564547 -29.96236426 54.03997444 -29.94421387 58.50537109 C-29.93306362 63.06359121 -29.96135182 67.62154749 -29.98632812 72.1796875 C-30.0295003 81.11997486 -30.0285882 90.05967428 -30 99 C-31.485 99.495 -31.485 99.495 -33 100 C-33 99.01 -33 98.02 -33 97 C-32.34 97 -31.68 97 -31 97 C-31.00222061 96.05230743 -31.00444122 95.10461487 -31.00672913 94.12820435 C-31.02697309 85.21084586 -31.04197821 76.29349202 -31.05181217 67.3761158 C-31.0570378 62.79126149 -31.06412967 58.20642569 -31.07543945 53.62158203 C-31.08627967 49.19958183 -31.09227925 44.77759946 -31.09487724 40.35558701 C-31.09672944 38.66583856 -31.10034614 36.97609113 -31.10573006 35.28635025 C-31.11295551 32.92541622 -31.1139903 30.56455653 -31.11352539 28.20361328 C-31.11712067 27.50014771 -31.12071594 26.79668213 -31.12442017 26.07189941 C-31.11405216 21.22810432 -31.11405216 21.22810432 -30 19 C-29.01 19 -28.02 19 -27 19 C-27 18.34 -27 17.68 -27 17 C-26.01 17 -25.02 17 -24 17 C-23.67 16.01 -23.34 15.02 -23 14 C-21.02 14 -19.04 14 -17 14 C-17 13.34 -17 12.68 -17 12 C-13.35229798 7.68907944 -10.10184705 6.02148657 -5 4 C-4.34 3.34 -3.68 2.68 -3 2 C-2.01 2 -1.02 2 0 2 C0 1.34 0 0.68 0 0 Z " fill="#3ADDE1" transform="translate(382,213)"/>
<path d="M0 0 C0 0.66 0 1.32 0 2 C-1.65 2.33 -3.3 2.66 -5 3 C-5 3.66 -5 4.32 -5 5 C-9.21865028 7.01512227 -13.20885432 7.41354068 -17.8125 7.625 C-18.50537109 7.66367187 -19.19824219 7.70234375 -19.91210938 7.7421875 C-21.60767015 7.83573568 -23.30379712 7.91892364 -25 8 C-25 8.66 -25 9.32 -25 10 C-29.95 10.33 -34.9 10.66 -40 11 C-40 11.66 -40 12.32 -40 13 C-40.66 13 -41.32 13 -42 13 C-42.33 13.66 -42.66 14.32 -43 15 C-44.155 14.835 -45.31 14.67 -46.5 14.5 C-53.6385158 13.68646128 -60.82734659 13.92079278 -68 14 C-64.32880415 11.73138923 -60.57264548 11.46211661 -56.375 11.0625 C-41.23039779 9.4062619 -26.96714961 6.66595528 -12.32617188 2.3371582 C-10.79186523 1.88602661 -10.79186523 1.88602661 -9.2265625 1.42578125 C-7.85878662 1.01453003 -7.85878662 1.01453003 -6.46337891 0.5949707 C-4 0 -4 0 0 0 Z " fill="#3EE0E4" transform="translate(232,281)"/>
<path d="M0 0 C7.86654043 0.38063905 14.70936613 2.14137503 20.70703125 7.53515625 C24.46031517 12.11048507 25.54157572 17.16764615 25 23 C22.53054824 32.18980058 17.05149563 42.63233625 9 48 C10.00193437 44.20696275 10.81024227 41.28463659 13 38 C13.66 38 14.32 38 15 38 C15.66 35.03 16.32 32.06 17 29 C17.66 29 18.32 29 19 29 C19 28.34 19 27.68 19 27 C19.66 27 20.32 27 21 27 C21.85720914 18.00401859 21.85720914 18.00401859 18.8125 9.8125 C16.18103802 7.18103802 14.56420268 5.91650926 11 5 C11 4.34 11 3.68 11 3 C7.37 2.67 3.74 2.34 0 2 C0 1.34 0 0.68 0 0 Z " fill="#40E3E2" transform="translate(400,143)"/>
<path d="M0 0 C0.66 0 1.32 0 2 0 C0.31183243 4.34100231 -1.65263572 8.50606364 -3.68359375 12.6953125 C-7.44316465 22.13328573 -8.40932076 30.5576853 -8.1875 40.6875 C-8.16719727 42.47317383 -8.16719727 42.47317383 -8.14648438 44.29492188 C-8.11151828 47.19710738 -8.06244696 50.09829809 -8 53 C-10.2168997 51.35197814 -11.55020788 50.29427518 -13 48 C-13.48708827 44.57919325 -13.1541543 41.3013748 -12.8125 37.875 C-12.74224609 36.96878906 -12.67199219 36.06257813 -12.59960938 35.12890625 C-12.46907902 33.45065881 -12.32747058 31.7732092 -12.17114258 30.09716797 C-11.95933193 27.85234656 -11.95933193 27.85234656 -12 25 C-12.33 25 -12.66 25 -13 25 C-13.48951049 18.63636364 -13.48951049 18.63636364 -11.125 15.5625 C-9 14 -9 14 -7 14 C-6.773125 12.989375 -6.54625 11.97875 -6.3125 10.9375 C-5.06602124 6.5434382 -2.87815827 3.52574387 0 0 Z " fill="#7588E1" transform="translate(213,181)"/>
<path d="M0 0 C3.68169211 2.45446141 4.36981964 4.96170157 5.8125 8.9375 C9.81474475 19.39259861 14.80151626 28.37459789 22 37 C19 37 19 37 16.4375 34.625 C15.2309375 33.325625 15.2309375 33.325625 14 32 C13.34 31.34 12.68 30.68 12 30 C10.68 30.99 9.36 31.98 8 33 C7.505 31.515 7.505 31.515 7 30 C7.99 29.01 8.98 28.02 10 27 C9.01 26.67 8.02 26.34 7 26 C6.690625 24.906875 6.38125 23.81375 6.0625 22.6875 C4.93766425 18.78365828 3.87229006 17.68698102 1 15 C0.3125 13.125 0.3125 13.125 0 11 C-0.20625 10.030625 -0.4125 9.06125 -0.625 8.0625 C-0.99485475 5.04201955 -0.77280099 2.9194704 0 0 Z " fill="#58A8DD" transform="translate(201,229)"/>
<path d="M0 0 C0.33 0 0.66 0 1 0 C0.42270858 6.46566391 -0.65181746 12.78414724 -1.89575195 19.15039062 C-3.32839948 26.51777374 -4.16633846 33.51084823 -4.125 41 C-4.1245166 41.82363037 -4.1240332 42.64726074 -4.12353516 43.49584961 C-4.08659832 50.09926453 -3.65999117 56.62075778 -3.0234375 63.19140625 C-3.01570312 64.11824219 -3.00796875 65.04507813 -3 66 C-3.99 66.99 -3.99 66.99 -5 68 C-9.98394292 45.92825279 -8.13336192 21.05591156 0 0 Z " fill="#856BD9" transform="translate(155,177)"/>
<path d="M0 0 C0.57599945 0.21446274 1.1519989 0.42892548 1.74545288 0.64988708 C0.42308566 1.62329629 -0.91320737 2.57779246 -2.25454712 3.52488708 C-3.36829712 4.3253949 -3.36829712 4.3253949 -4.50454712 5.14207458 C-11.23144055 8.83039968 -18.14326965 8.93892184 -25.62564087 8.88035583 C-26.58857559 8.87989761 -27.55151031 8.87943939 -28.54362488 8.87896729 C-30.56308232 8.87596359 -32.58253784 8.86813428 -34.60195923 8.85569763 C-37.7069407 8.83729883 -40.81162588 8.83518918 -43.91665649 8.83543396 C-45.88215389 8.83052344 -47.84764925 8.82469717 -49.81314087 8.81785583 C-50.74532944 8.81674301 -51.67751801 8.81563019 -52.63795471 8.81448364 C-53.49297073 8.80810379 -54.34798676 8.80172394 -55.22891235 8.79515076 C-55.98421738 8.79133896 -56.7395224 8.78752716 -57.51771545 8.78359985 C-59.25454712 8.64988708 -59.25454712 8.64988708 -60.25454712 7.64988708 C-60.29547649 5.31691275 -60.29696435 2.98283484 -60.25454712 0.64988708 C-59.85071808 1.29888474 -59.44688904 1.94788239 -59.03082275 2.61654663 C-57.45955879 4.8050169 -57.45955879 4.8050169 -55.20800781 5.16455078 C-54.42463043 5.17074936 -53.64125305 5.17694794 -52.83413696 5.18333435 C-51.94245819 5.19917068 -51.05077942 5.21500702 -50.13208008 5.23132324 C-49.16960358 5.22636337 -48.20712708 5.2214035 -47.21548462 5.21629333 C-45.72234238 5.2255912 -45.72234238 5.2255912 -44.19903564 5.2350769 C-42.08913145 5.24218593 -39.97917129 5.23898227 -37.86929321 5.2263031 C-34.66200257 5.21252649 -31.45768089 5.24638549 -28.25064087 5.28465271 C-26.19725474 5.28560481 -24.14386501 5.28374022 -22.09048462 5.27879333 C-20.66498795 5.29868065 -20.66498795 5.29868065 -19.21069336 5.31896973 C-13.12667642 5.23523114 -9.28489875 4.05933913 -4.23297119 0.62387085 C-2.25454712 -0.35011292 -2.25454712 -0.35011292 0 0 Z " fill="#38C2E6" transform="translate(302.2545471191406,239.35011291503906)"/>
<path d="M0 0 C19.14 0 38.28 0 58 0 C58.495 1.485 58.495 1.485 59 3 C58.30551758 2.99476318 57.61103516 2.98952637 56.89550781 2.98413086 C53.68034814 2.96305572 50.46520308 2.95024429 47.25 2.9375 C45.61224609 2.92493164 45.61224609 2.92493164 43.94140625 2.91210938 C38.4544333 2.89587573 33.07263949 3.03558688 27.609375 3.56640625 C23.19291126 3.98180003 19.38779509 3.76562008 15 3 C12.35488687 2.93484943 9.70831175 2.91408574 7.0625 2.9375 C6.03672852 2.94426758 6.03672852 2.94426758 4.99023438 2.95117188 C3.32678396 2.9628044 1.6633795 2.98073306 0 3 C0 2.01 0 1.02 0 0 Z " fill="#4FB7E9" transform="translate(294,191)"/>
<path d="M0 0 C0.33 0 0.66 0 1 0 C1 5.61 1 11.22 1 17 C-3.53565578 18.51188526 -7.16517704 19.43046408 -11.8125 20.0625 C-15.72681211 20.28810777 -15.72681211 20.28810777 -19 22 C-20.70772358 22.08713831 -22.41898649 22.10700007 -24.12890625 22.09765625 C-25.68061523 22.09282227 -25.68061523 22.09282227 -27.26367188 22.08789062 C-28.35228516 22.07951172 -29.44089844 22.07113281 -30.5625 22.0625 C-32.2012207 22.05573242 -32.2012207 22.05573242 -33.87304688 22.04882812 C-36.58208495 22.03699826 -39.29101599 22.02051543 -42 22 C-44 17.25 -44 17.25 -44 15 C-42.02 15 -40.04 15 -38 15 C-38.99 15.66 -39.98 16.32 -41 17 C-36.03320479 18.43614707 -31.07071389 18.22389338 -25.9375 18.25 C-24.45733398 18.2809375 -24.45733398 18.2809375 -22.94726562 18.3125 C-16.66275319 18.34542475 -11.27939797 17.53386923 -5.27954102 15.64746094 C-3 15 -3 15 0 15 C0 10.05 0 5.1 0 0 Z " fill="#28E2F0" transform="translate(296,266)"/>
<path d="M0 0 C8.07666133 0.34232732 15.89377518 0.3051371 23.93408203 -0.66088867 C17.84292793 2.99380379 10.43779345 2.49012847 3.55517578 2.55004883 C1.72769318 2.57813767 -0.09978065 2.60680225 -1.92724609 2.63598633 C-4.76814325 2.67698545 -7.60888028 2.71392875 -10.44995117 2.74047852 C-21.71043813 2.85446896 -32.14087582 3.33781499 -43.06591797 6.33911133 C-43.06591797 5.34911133 -43.06591797 4.35911133 -43.06591797 3.33911133 C-28.50998675 -0.89970381 -14.99466815 -0.6765361 0 0 Z " fill="#7E86DC" transform="translate(289.06591796875,150.660888671875)"/>
<path d="M0 0 C0 0.66 0 1.32 0 2 C-1.65 2.33 -3.3 2.66 -5 3 C-5.33 3.99 -5.66 4.98 -6 6 C-7.77734375 7.16796875 -7.77734375 7.16796875 -9.9375 8.1875 C-10.64777344 8.53167969 -11.35804688 8.87585938 -12.08984375 9.23046875 C-14 10 -14 10 -16 10 C-16.268125 10.598125 -16.53625 11.19625 -16.8125 11.8125 C-18 14 -18 14 -19.625 15.5625 C-21.34561132 17.02978279 -21.34561132 17.02978279 -21 20 C-22.32 20 -23.64 20 -25 20 C-26.02196992 20.97753644 -27.01979625 21.9805881 -28 23 C-28.763125 23.28875 -29.52625 23.5775 -30.3125 23.875 C-33.85052048 25.35603183 -36.13034339 27.4640244 -39 30 C-39.66 29.67 -40.32 29.34 -41 29 C-31.31031281 18.88902206 -21.03793506 11.08482636 -9 4 C-8.236875 3.54109375 -7.47375 3.0821875 -6.6875 2.609375 C-2.27728873 0 -2.27728873 0 0 0 Z " fill="#A648D7" transform="translate(220,108)"/>
<path d="M0 0 C0.66 0 1.32 0 2 0 C2.66 2.31 3.32 4.62 4 7 C5.65 7.33 7.3 7.66 9 8 C9.02712153 9.916588 9.04645097 11.8332873 9.0625 13.75 C9.07410156 14.81734375 9.08570313 15.8846875 9.09765625 16.984375 C9.01510087 19.53368501 8.74617558 21.57933591 8 24 C8.66 24 9.32 24 10 24 C10.69699552 25.45381897 11.38233866 26.91322953 12.0625 28.375 C12.44535156 29.18710937 12.82820312 29.99921875 13.22265625 30.8359375 C13.47917969 31.55007813 13.73570312 32.26421875 14 33 C13.67 33.66 13.34 34.32 13 35 C5.37688227 28.29890083 1.88812877 15.73112518 0 6 C-0.1875 2.3125 -0.1875 2.3125 0 0 Z M5 9 C6 12 6 12 6 12 Z " fill="#57A2E9" transform="translate(151,243)"/>
<path d="M0 0 C0.495 1.485 0.495 1.485 1 3 C0.21625 3.433125 -0.5675 3.86625 -1.375 4.3125 C-4.21698375 5.89220247 -4.21698375 5.89220247 -6 9 C-7.64333504 10.03789581 -9.31243867 11.03567924 -11 12 C-11.61101562 12.495 -12.22203125 12.99 -12.8515625 13.5 C-15.88601189 15.61859739 -19.01338976 16.24733152 -22.5625 17.15625 C-25.05427912 17.87882579 -25.05427912 17.87882579 -27.015625 19.51953125 C-29.28204777 21.2104254 -30.99053603 21.65995542 -33.75 22.1875 C-34.54921875 22.34605469 -35.3484375 22.50460938 -36.171875 22.66796875 C-36.77515625 22.77753906 -37.3784375 22.88710937 -38 23 C-35.45271271 20.03109274 -32.64867607 18.75586206 -29.125 17.125 C-18.940541 12.26088458 -9.51557003 6.03815086 0 0 Z " fill="#33EAE9" transform="translate(338,230)"/>
<path d="M0 0 C-0.56589844 0.25394531 -1.13179688 0.50789063 -1.71484375 0.76953125 C-2.81505859 1.28580078 -2.81505859 1.28580078 -3.9375 1.8125 C-4.66839844 2.14894531 -5.39929688 2.48539062 -6.15234375 2.83203125 C-8.33029489 3.93600134 -8.33029489 3.93600134 -9 7 C-9.65226562 7.10957031 -10.30453125 7.21914063 -10.9765625 7.33203125 C-14.98256488 8.05878389 -18.41402902 8.70103522 -22.0625 10.5625 C-25.97713393 12.47817192 -29.69297245 12.722436 -34 13 C-34 13.66 -34 14.32 -34 15 C-38.49656104 17.24828052 -42.07872966 17.16682272 -47 17 C-44.86286226 14.86286226 -43.80675492 14.46256154 -40.984375 13.58984375 C-40.15526611 13.32623047 -39.32615723 13.06261719 -38.47192383 12.79101562 C-37.12457153 12.36852539 -37.12457153 12.36852539 -35.75 11.9375 C-26.6016496 9.00235429 -17.7542838 5.56512876 -8.93457031 1.75756836 C-8.05510742 1.3838208 -7.17564453 1.01007324 -6.26953125 0.625 C-5.49198486 0.28726562 -4.71443848 -0.05046875 -3.91333008 -0.3984375 C-2 -1 -2 -1 0 0 Z " fill="#3DE4E7" transform="translate(279,264)"/>
<path d="M0 0 C4.66666667 2.33333333 4.66666667 2.33333333 6 5 C6.99 5.33 7.98 5.66 9 6 C9 7.32 9 8.64 9 10 C9.66 10 10.32 10 11 10 C10.67 10.99 10.34 11.98 10 13 C8.0390625 13.94921875 8.0390625 13.94921875 5.625 14.6875 C4.83351562 14.93886719 4.04203125 15.19023437 3.2265625 15.44921875 C1 16 1 16 -2 16 C-1.125 10.125 -1.125 10.125 0 9 C0.04080783 7.00041636 0.04254356 4.99954746 0 3 C-0.99 3 -1.98 3 -3 3 C-3 2.34 -3 1.68 -3 1 C-2.01 0.67 -1.02 0.34 0 0 Z " fill="#34CAFA" transform="translate(215,261)"/>
<path d="M0 0 C0.66 0.33 1.32 0.66 2 1 C3.27536232 6.44927536 3.27536232 6.44927536 2 9 C4.57381276 12.77803454 4.57381276 12.77803454 8.5 14.875 C10.9028409 15.12644547 10.9028409 15.12644547 12.765625 14.51171875 C15.63547327 13.85446329 18.30908784 13.90553356 21.25 13.9375 C22.32765625 13.94652344 23.4053125 13.95554687 24.515625 13.96484375 C25.33546875 13.97644531 26.1553125 13.98804688 27 14 C23.46332072 16.35778619 20.15994448 16.94284357 16.0625 17.6875 C15.34642578 17.82994141 14.63035156 17.97238281 13.89257812 18.11914062 C6.64562636 19.46912886 6.64562636 19.46912886 4 18 C2.078125 15.27734375 2.078125 15.27734375 0.25 11.9375 C-0.36359375 10.83277344 -0.9771875 9.72804688 -1.609375 8.58984375 C-2.06828125 7.73519531 -2.5271875 6.88054687 -3 6 C-2.34 5.67 -1.68 5.34 -1 5 C-1.33 3.68 -1.66 2.36 -2 1 C-1.34 0.67 -0.68 0.34 0 0 Z " fill="#51B8DF" transform="translate(165,271)"/>
<path d="M0 0 C0.66 0.33 1.32 0.66 2 1 C0.38405168 3.04119788 -1.2856382 5.04072937 -3 7 C-3.66 7 -4.32 7 -5 7 C-5.268125 7.556875 -5.53625 8.11375 -5.8125 8.6875 C-7 11 -7 11 -8.5 13.4375 C-10.06137537 15.95545864 -10.06137537 15.95545864 -11.0625 18.6875 C-12 21 -12 21 -14 23 C-14.6425235 25.06874034 -14.6425235 25.06874034 -15 27 C-15.66 27 -16.32 27 -17 27 C-17.66 30.63 -18.32 34.26 -19 38 C-19.66 38 -20.32 38 -21 38 C-20.34306063 24.86121266 -14.33074588 13.15093513 -4.9296875 3.98046875 C-3.33183829 2.59933188 -1.6727475 1.28940953 0 0 Z " fill="#5AA6DD" transform="translate(264,202)"/>
<path d="M0 0 C3.40552098 1.4091811 5.11892542 2.82071902 7 6 C7.98179731 13.81587661 7.40782571 20.9003631 4 28 C3.34 28 2.68 28 2 28 C1.34 29.98 0.68 31.96 0 34 C-0.99 34 -1.98 34 -3 34 C-3 34.99 -3 35.98 -3 37 C-4.32 36.67 -5.64 36.34 -7 36 C-6.54109375 35.45472656 -6.0821875 34.90945312 -5.609375 34.34765625 C0.51101944 26.82574291 4.73849585 20.25635888 4.3359375 10.30078125 C3.87143074 7.1194501 2.69346723 4.70954757 1 2 C0.67 1.34 0.34 0.68 0 0 Z " fill="#3FE3E5" transform="translate(390,156)"/>
<path d="M0 0 C1.11651815 3.34955444 0.99822121 4.67259596 0 8 C-1 9 -2 10 -3 11 C-4.26625714 14.1989654 -5 16.55173186 -5 20 C-5.33 20.99 -5.66 21.98 -6 23 C-5.34 23.33 -4.68 23.66 -4 24 C-4.66 24.99 -5.32 25.98 -6 27 C-6 27.99 -6 28.98 -6 30 C-6.66 30 -7.32 30 -8 30 C-8 30.99 -8 31.98 -8 33 C-8.99 32.67 -9.98 32.34 -11 32 C-10.21875 29.16796875 -10.21875 29.16796875 -9.4375 26.3359375 C-8.88962592 23.94816129 -8.88962592 23.94816129 -9.18359375 21.27734375 C-8.92603772 16.67969461 -7.09597741 13.2648829 -5.0625 9.1875 C-4.68931641 8.41212891 -4.31613281 7.63675781 -3.93164062 6.83789062 C-1.18849649 1.18849649 -1.18849649 1.18849649 0 0 Z " fill="#9F57F2" transform="translate(164,158)"/>
<path d="M0 0 C0.66 0.33 1.32 0.66 2 1 C-4.36697248 8.39449541 -4.36697248 8.39449541 -7.875 11.75 C-9.95274519 13.94996549 -10.67121442 15.04092976 -11 18 C-12.32 18 -13.64 18 -15 18 C-15 17.34 -15 16.68 -15 16 C-16.98 16.33 -18.96 16.66 -21 17 C-17.04533282 12.63622932 -12.5140715 9.36601981 -7.71875 5.96484375 C-5.07543254 4.05451518 -2.52966164 2.05764144 0 0 Z " fill="#18F7F9" transform="translate(361,213)"/>
<path d="M0 0 C-0.23046875 1.91015625 -0.23046875 1.91015625 -1 4 C-2.92578125 4.87109375 -2.92578125 4.87109375 -5.3125 5.4375 C-9.68974751 6.68616014 -11.35280045 8.2328314 -14 12 C-14.99 12 -15.98 12 -17 12 C-15.5 9 -15.5 9 -14 6 C-13.34 6 -12.68 6 -12 6 C-11.731875 5.401875 -11.46375 4.80375 -11.1875 4.1875 C-9.57164014 1.21091605 -8.17030475 -0.5245637 -5 -1.8125 C-3 -2 -3 -2 0 0 Z " fill="#52ABF7" transform="translate(273,203)"/>
<path d="M0 0 C-0.33 1.32 -0.66 2.64 -1 4 C-2.32 3.67 -3.64 3.34 -5 3 C-5.33 3.66 -5.66 4.32 -6 5 C-6.99 4.67 -7.98 4.34 -9 4 C-14.05785105 4.54191261 -18.75900592 7.64950644 -22.125 11.3125 C-22.74375 11.869375 -23.3625 12.42625 -24 13 C-26.75 12.75 -26.75 12.75 -29 12 C-26.56968833 9.56968833 -24.06519015 8.52542424 -20.97265625 7.09765625 C-18.93167063 6.08806328 -18.93167063 6.08806328 -17.43359375 4.37109375 C-16 3 -16 3 -13 3 C-13 2.34 -13 1.68 -13 1 C-11.20994059 0.63779734 -9.41787943 0.28547531 -7.625 -0.0625 C-6.12839844 -0.35833984 -6.12839844 -0.35833984 -4.6015625 -0.66015625 C-2 -1 -2 -1 0 0 Z " fill="#B444F2" transform="translate(233,107)"/>
<path d="M0 0 C8 2 8 2 11 5 C11 5.99 11 6.98 11 8 C11.9590625 8.1546875 11.9590625 8.1546875 12.9375 8.3125 C17.06477326 9.23903073 21.00642949 10.61660629 25 12 C25 12.66 25 13.32 25 14 C25.99 14.33 26.98 14.66 28 15 C27.01 15.495 27.01 15.495 26 16 C23.39091442 15.03875794 20.90380992 14.01732842 18.375 12.875 C17.6516748 12.55168701 16.92834961 12.22837402 16.18310547 11.89526367 C2.45236278 5.65472 2.45236278 5.65472 0 0 Z " fill="#30E3EA" transform="translate(202,319)"/>
<path d="M0 0 C0.99 0.33 1.98 0.66 3 1 C-2.02107426 7.08571465 -7.3819337 12.17506206 -13.58203125 17.0546875 C-15.52839774 18.62058494 -17.2863183 20.18953229 -19 22 C-19.66 21.67 -20.32 21.34 -21 21 C-20.34 20.34 -19.68 19.68 -19 19 C-18.7834375 18.01 -18.7834375 18.01 -18.5625 17 C-18 15 -18 15 -15 13 C-14.01 13 -13.02 13 -12 13 C-12 12.34 -12 11.68 -12 11 C-7.61538462 8 -7.61538462 8 -5 8 C-5 7.01 -5 6.02 -5 5 C-4.01 5 -3.02 5 -2 5 C-1.855625 4.360625 -1.71125 3.72125 -1.5625 3.0625 C-1 1 -1 1 0 0 Z " fill="#40E2E1" transform="translate(406,191)"/>
<path d="M0 0 C2.00720923 0.28674418 4.0085944 0.61866701 6 1 C5.48046875 2.921875 5.48046875 2.921875 4 5 C1.33633124 5.63952183 -0.98592621 6.01613969 -3.6875 6.25 C-4.73067383 6.36601562 -4.73067383 6.36601562 -5.79492188 6.484375 C-18.58996994 7.82241924 -18.58996994 7.82241924 -23 5 C-22.00419922 5.01740234 -22.00419922 5.01740234 -20.98828125 5.03515625 C-14.40427602 5.23896273 -14.40427602 5.23896273 -8 4 C-7.484375 3.484375 -6.96875 2.96875 -6.4375 2.4375 C-5.963125 1.963125 -5.48875 1.48875 -5 1 C-3.68 1 -2.36 1 -1 1 C-0.67 0.67 -0.34 0.34 0 0 Z " fill="#6D8CF2" transform="translate(311,145)"/>
<path d="M0 0 C0 4.02580163 -1.07721703 6.47489789 -3 10 C-4.97888961 10.72693904 -6.97954558 11.39816251 -9 12 C-9.68753301 13.65816784 -10.35561283 15.32459336 -11 17 C-13.80968687 17.93656229 -16.03799136 18 -19 18 C-18.53102295 17.56131592 -18.0620459 17.12263184 -17.57885742 16.6706543 C-15.4479108 14.6767969 -13.31769829 12.68215687 -11.1875 10.6875 C-10.44951172 9.99720703 -9.71152344 9.30691406 -8.95117188 8.59570312 C-8.23896484 7.92861328 -7.52675781 7.26152344 -6.79296875 6.57421875 C-6.1383667 5.96151123 -5.48376465 5.34880371 -4.80932617 4.7175293 C-3.17905198 3.16996771 -1.58078486 1.59789755 0 0 Z " fill="#36E7E7" transform="translate(382,194)"/>
<path d="M0 0 C19.14 0 38.28 0 58 0 C58.495 1.485 58.495 1.485 59 3 C58.0937085 2.84152588 57.18741699 2.68305176 56.25366211 2.51977539 C50.83974608 1.7507152 45.40063645 1.76643832 39.94140625 1.68359375 C38.79711655 1.66281265 37.65282684 1.64203156 36.47386169 1.62062073 C32.83679924 1.55550207 29.19966769 1.4964161 25.5625 1.4375 C23.08918571 1.39427892 20.61587827 1.3506635 18.14257812 1.30664062 C12.09512405 1.19985951 6.04760201 1.0980247 0 1 C0 0.67 0 0.34 0 0 Z " fill="#6BAAD0" transform="translate(294,191)"/>
<path d="M0 0 C-0.37029807 2.57649865 -0.71905203 3.74372684 -2.6706543 5.52392578 C-3.38133057 5.9929834 -4.09200684 6.46204102 -4.82421875 6.9453125 C-5.60603516 7.46480469 -6.38785156 7.98429687 -7.19335938 8.51953125 C-8.01642578 9.04933594 -8.83949219 9.57914062 -9.6875 10.125 C-10.49123047 10.66253906 -11.29496094 11.20007813 -12.12304688 11.75390625 C-16.30368296 14.49541904 -20.1096661 16.72013879 -25 18 C-25 17.34 -25 16.68 -25 16 C-23.2984375 15.5978125 -23.2984375 15.5978125 -21.5625 15.1875 C-20.386875 14.795625 -19.21125 14.40375 -18 14 C-17.67 13.01 -17.34 12.02 -17 11 C-15.22265625 9.61328125 -15.22265625 9.61328125 -13.0625 8.3125 C-11.99708984 7.65701172 -11.99708984 7.65701172 -10.91015625 6.98828125 C-9 6 -9 6 -7 6 C-6.9175 5.38125 -6.835 4.7625 -6.75 4.125 C-6 2 -6 2 -4.0625 0.75 C-2 0 -2 0 0 0 Z " fill="#43E3E5" transform="translate(349,311)"/>
<path d="M0 0 C0.33 0 0.66 0 1 0 C1 5.61 1 11.22 1 17 C-7.69853674 19.89951225 -15.42949063 20.13987311 -24.5 20.0625 C-25.51320313 20.05798828 -26.52640625 20.05347656 -27.5703125 20.04882812 C-30.04693827 20.03714593 -32.52343657 20.02076582 -35 20 C-35 19.67 -35 19.34 -35 19 C-34.13217896 18.97812622 -34.13217896 18.97812622 -33.24682617 18.95581055 C-18.89628837 18.70915611 -18.89628837 18.70915611 -4.9609375 15.62109375 C-3 15 -3 15 0 15 C0 10.05 0 5.1 0 0 Z " fill="#45DBE0" transform="translate(296,266)"/>
<path d="M0 0 C0.309375 0.639375 0.61875 1.27875 0.9375 1.9375 C6.5520684 7.5520684 21.23924669 5.35765902 29.0625 5.5625 C30.61133766 5.60577992 32.16016594 5.64939692 33.70898438 5.69335938 C37.47255932 5.79946066 41.23623195 5.90099536 45 6 C45 6.33 45 6.66 45 7 C38.75220534 7.16784025 32.50424527 7.32780106 26.25610352 7.48217773 C24.12877795 7.53568206 22.00149764 7.59101764 19.87426758 7.64819336 C16.8238298 7.72986981 13.77329203 7.80504681 10.72265625 7.87890625 C9.76537125 7.90594131 8.80808624 7.93297638 7.8217926 7.96083069 C6.94095505 7.98092697 6.06011749 8.00102325 5.15258789 8.02172852 C4.37315323 8.04171402 3.59371857 8.06169952 2.79066467 8.08229065 C1 8 1 8 0 7 C-0.04092937 4.66702567 -0.04241723 2.33294775 0 0 Z " fill="#60BDDB" transform="translate(242,240)"/>
<path d="M0 0 C-1 1 -1 1 -4.5625 1.0625 C-5.696875 1.041875 -6.83125 1.02125 -8 1 C-7.02977977 2.72780266 -7.02977977 2.72780266 -5 4 C-2.23385218 3.96726452 0.26030547 3.49404328 3 3 C0.4133571 6.87996435 -1.15047436 6.76627413 -5.625 7.6875 C-7.40777344 8.06455078 -7.40777344 8.06455078 -9.2265625 8.44921875 C-10.14179688 8.63097656 -11.05703125 8.81273437 -12 9 C-11.67 7.35 -11.34 5.7 -11 4 C-11.66 4 -12.32 4 -13 4 C-13 3.34 -13 2.68 -13 2 C-12.01 2 -11.02 2 -10 2 C-10 1.34 -10 0.68 -10 0 C-2.25 -1.125 -2.25 -1.125 0 0 Z " fill="#17F4F8" transform="translate(242,281)"/>
<path d="M0 0 C3.3 0 6.6 0 10 0 C9.67 1.65 9.34 3.3 9 5 C9.99 5.33 10.98 5.66 12 6 C11.67 7.32 11.34 8.64 11 10 C6.73327616 9.52591957 4.7544952 7.11692878 2 4 C1.34 2.68 0.68 1.36 0 0 Z " fill="#29D1F5" transform="translate(180,299)"/>
<path d="M0 0 C0 0.99 0 1.98 0 3 C-7.92 3.495 -7.92 3.495 -16 4 C-16 4.66 -16 5.32 -16 6 C-18.31 6 -20.62 6 -23 6 C-22.01 5.67 -21.02 5.34 -20 5 C-19.67 4.34 -19.34 3.68 -19 3 C-15.91729704 0.94486469 -14.74782842 0.67032678 -11.1875 0.375 C-9.86685547 0.26478516 -9.86685547 0.26478516 -8.51953125 0.15234375 C-5.67375295 -0.01972657 -2.85012709 -0.07500334 0 0 Z " fill="#12FBFB" transform="translate(208,292)"/>
<path d="M0 0 C0.33 0 0.66 0 1 0 C1.45686971 8.42467753 -1.57024342 12.75462676 -7.06640625 18.9453125 C-7.70449219 19.62335938 -8.34257812 20.30140625 -9 21 C-9.33 20.34 -9.66 19.68 -10 19 C-8.98446183 15.9533855 -7.79237442 13.68856164 -6 11 C-5.34 11 -4.68 11 -4 11 C-3.34 8.03 -2.68 5.06 -2 2 C-1.34 2 -0.68 2 0 2 C0 1.34 0 0.68 0 0 Z " fill="#20F3F3" transform="translate(419,170)"/>
<path d="M0 0 C-1.98 0.99 -1.98 0.99 -4 2 C-2.35 2.33 -0.7 2.66 1 3 C1 3.33 1 3.66 1 4 C-4.57067277 5.59162079 -9.21101581 6.20674944 -15 6 C-15.33 5.01 -15.66 4.02 -16 3 C-14.27318563 2.49193553 -12.54342021 1.99389533 -10.8125 1.5 C-9.84957031 1.2215625 -8.88664062 0.943125 -7.89453125 0.65625 C-5.14654124 0.03322392 -2.80401584 -0.12302812 0 0 Z " fill="#6DCBD8" transform="translate(343,148)"/>
<path d="M0 0 C0 0.66 0 1.32 0 2 C-1.65 2.33 -3.3 2.66 -5 3 C-5 3.66 -5 4.32 -5 5 C-9.49656104 7.24828052 -13.07872966 7.16682272 -18 7 C-17.67 6.34 -17.34 5.68 -17 5 C-16.01 5 -15.02 5 -14 5 C-14 4.34 -14 3.68 -14 3 C-12.4188708 2.49307308 -10.83498617 1.99473557 -9.25 1.5 C-8.36828125 1.2215625 -7.4865625 0.943125 -6.578125 0.65625 C-4 0 -4 0 0 0 Z " fill="#34EAEE" transform="translate(232,281)"/>
<path d="M0 0 C0.66 0 1.32 0 2 0 C2.28875 1.11375 2.5775 2.2275 2.875 3.375 C3.69241329 7.00291092 3.69241329 7.00291092 6 9 C6.1953125 11.3828125 6.1953125 11.3828125 6.125 14.125 C6.10695312 15.03507812 6.08890625 15.94515625 6.0703125 16.8828125 C6.03550781 17.93082031 6.03550781 17.93082031 6 19 C5.34 19 4.68 19 4 19 C3.32263519 16.96185767 2.65856466 14.91929445 2 12.875 C1.62875 11.73804688 1.2575 10.60109375 0.875 9.4296875 C0.03088051 6.12104059 -0.16509276 3.39471984 0 0 Z " fill="#6D92E5" transform="translate(151,243)"/>
<path d="M0 0 C7.26 0 14.52 0 22 0 C22.28571429 13.85714286 22.28571429 13.85714286 20 20 C19.67 20 19.34 20 19 20 C18.97269538 18.12508307 18.95346756 16.25004775 18.9375 14.375 C18.92589844 13.33085938 18.91429687 12.28671875 18.90234375 11.2109375 C19 8 19 8 20 2 C13.4 1.67 6.8 1.34 0 1 C0 0.67 0 0.34 0 0 Z " fill="#7A78D9" transform="translate(329,98)"/>
<path d="M0 0 C0.33 0 0.66 0 1 0 C1.01981934 0.62455078 1.03963867 1.24910156 1.06005859 1.89257812 C1.15616932 4.76209381 1.26549487 7.63096547 1.375 10.5 C1.4059375 11.48226562 1.436875 12.46453125 1.46875 13.4765625 C1.647437 17.94373743 1.90276199 22.13906143 3.0625 26.46875 C4.15215121 30.57310289 3.85326394 32.9043331 3 37 C-1.28775274 29.33061855 -0.13301511 19.40190411 -0.0625 10.875 C-0.05798828 9.823125 -0.05347656 8.77125 -0.04882812 7.6875 C-0.03718011 5.12493779 -0.02082553 2.56250123 0 0 Z " fill="#7E83D8" transform="translate(148,208)"/>
<path d="M0 0 C4.35365427 -0.17509799 8.70639697 -0.2811281 13.0625 -0.375 C14.29162109 -0.42527344 15.52074219 -0.47554688 16.78710938 -0.52734375 C27.03628189 -0.69309856 27.03628189 -0.69309856 31.25 2.875 C32.76953125 4.46875 32.76953125 4.46875 34 6 C34.639375 6.78375 35.27875 7.5675 35.9375 8.375 C36.4634375 9.179375 36.4634375 9.179375 37 10 C36.67 10.66 36.34 11.32 36 12 C35.36964844 10.93458984 35.36964844 10.93458984 34.7265625 9.84765625 C31.28820114 5.29086879 28.62937564 2.49693332 22.97460938 1.42822266 C15.33128466 0.72595137 7.66673485 0.76981313 0 1 C0 0.67 0 0.34 0 0 Z " fill="#5DDBDD" transform="translate(153,300)"/>
<path d="M0 0 C0 0.33 0 0.66 0 1 C-1.65 1 -3.3 1 -5 1 C-5 1.66 -5 2.32 -5 3 C-5.94875 3.309375 -6.8975 3.61875 -7.875 3.9375 C-10.86080408 4.87394742 -10.86080408 4.87394742 -13 6 C-15.00800456 5.71887936 -17.01014051 5.38932033 -19 5 C-18.67 4.01 -18.34 3.02 -18 2 C-16.35 2 -14.7 2 -13 2 C-12.67 1.34 -12.34 0.68 -12 0 C-10.0390625 -0.44921875 -10.0390625 -0.44921875 -7.625 -0.6875 C-6.43777344 -0.81705078 -6.43777344 -0.81705078 -5.2265625 -0.94921875 C-3 -1 -3 -1 0 0 Z " fill="#3BC1F3" transform="translate(205,280)"/>
<path d="M0 0 C1.65 0 3.3 0 5 0 C4.75 2.375 4.75 2.375 4 5 C1.9375 6.3125 1.9375 6.3125 0 7 C0 7.66 0 8.32 0 9 C-2.64 9.99 -5.28 10.98 -8 12 C-8 10.02 -8 8.04 -8 6 C-7.2575 6.185625 -6.515 6.37125 -5.75 6.5625 C-3.05009037 6.99203108 -1.55368923 6.85122974 1 6 C0.67 4.02 0.34 2.04 0 0 Z " fill="#27D7F7" transform="translate(336,210)"/>
<path d="M0 0 C-1 3 -1 3 -3.65234375 4.38671875 C-4.73644531 4.81597656 -5.82054687 5.24523437 -6.9375 5.6875 C-8.01902344 6.12449219 -9.10054688 6.56148438 -10.21484375 7.01171875 C-13 8 -13 8 -15 8 C-14.80078125 6.140625 -14.80078125 6.140625 -14 4 C-11.85546875 2.734375 -11.85546875 2.734375 -9.1875 1.75 C-7.87845703 1.24726563 -7.87845703 1.24726563 -6.54296875 0.734375 C-4 0 -4 0 0 0 Z " fill="#32EEEC" transform="translate(296,264)"/>
<path d="M0 0 C2.62527189 -0.05382106 5.24944713 -0.09358313 7.875 -0.125 C8.62136719 -0.14175781 9.36773437 -0.15851563 10.13671875 -0.17578125 C12.09194461 -0.1933959 14.04742021 -0.10320189 16 0 C18 2 18 2 18.046875 4.71484375 C17.94890625 5.77832031 17.8509375 6.84179688 17.75 7.9375 C17.66234375 8.99839844 17.5746875 10.05929688 17.484375 11.15234375 C17 14 17 14 15 17 C14.34 16.67 13.68 16.34 13 16 C13.33 15.01 13.66 14.02 14 13 C14.66 13 15.32 13 16 13 C15.84402344 12.30132812 15.68804687 11.60265625 15.52734375 10.8828125 C15.33269531 9.97273437 15.13804687 9.06265625 14.9375 8.125 C14.74027344 7.22007812 14.54304688 6.31515625 14.33984375 5.3828125 C14 3 14 3 15 1 C14.41992188 1.08378906 13.83984375 1.16757813 13.2421875 1.25390625 C8.57684697 1.86209421 4.64557883 2.07205665 0 1 C0 0.67 0 0.34 0 0 Z " fill="#3FC8E7" transform="translate(335,193)"/>
<path d="M0 0 C0.66 0.66 1.32 1.32 2 2 C1.38253906 2.46148437 0.76507813 2.92296875 0.12890625 3.3984375 C-6.32770884 8.37111213 -11.73244507 13.79090144 -17 20 C-17.33 19.34 -17.66 18.68 -18 18 C-14.73994045 13.00124203 -11.63247159 9.70597727 -7 6 C-4.65422292 4.01436297 -2.32491033 2.01000893 0 0 Z " fill="#7B6FC7" transform="translate(233,161)"/>
<path d="M0 0 C0 3 0 3 -2.484375 5.59375 C-3.56537415 6.57090933 -4.65430121 7.53935246 -5.75 8.5 C-6.28882813 8.98597656 -6.82765625 9.47195312 -7.3828125 9.97265625 C-10.15847952 12.45721673 -12.9742239 14.82614144 -16 17 C-16.66 16.67 -17.32 16.34 -18 16 C-12.35791507 10.11782635 -6.56939133 4.82997802 0 0 Z " fill="#9C4ECD" transform="translate(197,121)"/>
<path d="M0 0 C3.26296197 0.22503186 4.04203745 1.04787598 6.25 3.5625 C7.11625 4.7690625 7.11625 4.7690625 8 6 C6.68 6 5.36 6 4 6 C5.65 7.98 7.3 9.96 9 12 C4.57882285 10.64908476 2.556657 8.8349855 0 5 C-0.8125 2.75 -0.8125 2.75 -1 1 C-0.67 0.67 -0.34 0.34 0 0 Z " fill="#58DADA" transform="translate(130,284)"/>
<path d="M0 0 C0.66 0.33 1.32 0.66 2 1 C3.27536232 6.44927536 3.27536232 6.44927536 2 9 C2.495 9.928125 2.495 9.928125 3 10.875 C4 13 4 13 3 17 C1.02 13.37 -0.96 9.74 -3 6 C-2.34 5.67 -1.68 5.34 -1 5 C-1.33 3.68 -1.66 2.36 -2 1 C-1.34 0.67 -0.68 0.34 0 0 Z " fill="#5EACDD" transform="translate(165,271)"/>
<path d="M0 0 C2.57619276 1.91315119 2.98395232 2.9016314 3.51171875 6.13671875 C3.59873047 7.89435547 3.59873047 7.89435547 3.6875 9.6875 C3.75324219 10.86699219 3.81898438 12.04648438 3.88671875 13.26171875 C3.92410156 14.16535156 3.96148437 15.06898438 4 16 C2.68 15.67 1.36 15.34 0 15 C0.020625 14.0925 0.04125 13.185 0.0625 12.25 C0.13569753 9.16643807 0.13569753 9.16643807 -0.5625 6.9375 C-1.13360672 4.40831308 -0.62202951 2.48811803 0 0 Z " fill="#5BA4F6" transform="translate(201,229)"/>
<path d="M0 0 C2.625 -0.1875 2.625 -0.1875 5 0 C5 3 5 3 3.0625 5 C-0.76815425 7.50165176 -4.62843054 8.74281663 -9 10 C-8.67 9.34 -8.34 8.68 -8 8 C-7.34 8 -6.68 8 -6 8 C-6 7.34 -6 6.68 -6 6 C-4.35 6 -2.7 6 -1 6 C-1.33 5.01 -1.66 4.02 -2 3 C-1.34 2.01 -0.68 1.02 0 0 Z " fill="#6994FA" transform="translate(326,136)"/>
<path d="M0 0 C4.66666667 2.33333333 4.66666667 2.33333333 6 5 C6.99 5.33 7.98 5.66 9 6 C9 6.66 9 7.32 9 8 C6.58287634 8.86325845 5.35009306 9.1132654 2.875 8.3125 C0.68703828 6.7809268 -0.01906046 5.45234885 -1 3 C-1.66 3 -2.32 3 -3 3 C-3 2.34 -3 1.68 -3 1 C-2.01 0.67 -1.02 0.34 0 0 Z " fill="#3DC0F3" transform="translate(215,261)"/>
<path d="M0 0 C0.33 0 0.66 0 1 0 C1 7.59 1 15.18 1 23 C0.01 23 -0.98 23 -2 23 C-1.86111494 19.72883268 -1.71269508 16.458166 -1.5625 13.1875 C-1.52318359 12.25873047 -1.48386719 11.32996094 -1.44335938 10.37304688 C-1.40146484 9.48037109 -1.35957031 8.58769531 -1.31640625 7.66796875 C-1.27974854 6.84578857 -1.24309082 6.0236084 -1.20532227 5.17651367 C-1 3 -1 3 0 0 Z " fill="#658FF3" transform="translate(202,206)"/>
<path d="M0 0 C0 0.99 0 1.98 0 3 C-0.69867188 3.19335938 -1.39734375 3.38671875 -2.1171875 3.5859375 C-3.48230469 3.97652344 -3.48230469 3.97652344 -4.875 4.375 C-5.77992188 4.63023437 -6.68484375 4.88546875 -7.6171875 5.1484375 C-10.14569726 5.8604315 -10.14569726 5.8604315 -12 8 C-14.125 7.625 -14.125 7.625 -16 7 C-15.01 6.67 -14.02 6.34 -13 6 C-12.67 5.34 -12.34 4.68 -12 4 C-11.34 4 -10.68 4 -10 4 C-9.67 3.01 -9.34 2.02 -9 1 C-6.03421164 -0.16513114 -3.15436364 -0.08762121 0 0 Z " fill="#19F7F3" transform="translate(309,251)"/>
<path d="M0 0 C1.11651815 3.34955444 0.99822121 4.67259596 0 8 C-1 9 -2 10 -3 11 C-3.33 12.03125 -3.66 13.0625 -4 14.125 C-4.33 15.07375 -4.66 16.0225 -5 17 C-5.99 17.33 -6.98 17.66 -8 18 C-6.10463724 11.48180123 -3.4821006 5.82185199 0 0 Z " fill="#955FCF" transform="translate(164,158)"/>
<path d="M0 0 C2.475 0.99 2.475 0.99 5 2 C4.34 4.31 3.68 6.62 3 9 C1.125 8.75 1.125 8.75 -1 8 C-2.25 5.9375 -2.25 5.9375 -3 4 C-2.34 4 -1.68 4 -1 4 C-0.67 2.68 -0.34 1.36 0 0 Z " fill="#1EF0F7" transform="translate(249,278)"/>
<path d="M0 0 C1.32 0.33 2.64 0.66 4 1 C4.20413361 6.73842251 4.27141454 11.60539047 2 17 C1.67 17 1.34 17 1 17 C0.67 11.39 0.34 5.78 0 0 Z " fill="#1CEFF9" transform="translate(296,263)"/>
<path d="M0 0 C-9.22551253 6.70387244 -9.22551253 6.70387244 -15 7 C-10.7055697 2.32664938 -6.59500687 -2.07069033 0 0 Z " fill="#47D0E6" transform="translate(304,240)"/>
<path d="M0 0 C5.63738908 -0.54998918 8.4597032 0.88411004 13 4 C13.33 4.99 13.66 5.98 14 7 C12.39566191 6.52140759 10.79153584 6.04210442 9.1875 5.5625 C8.29417969 5.29566406 7.40085937 5.02882812 6.48046875 4.75390625 C4.64526945 4.19612127 2.81966274 3.60655425 1 3 C0.67 2.01 0.34 1.02 0 0 Z " fill="#35E6E6" transform="translate(376,149)"/>
<path d="M0 0 C1.22589844 0.01353516 1.22589844 0.01353516 2.4765625 0.02734375 C3.41628906 0.04474609 3.41628906 0.04474609 4.375 0.0625 C4.375 0.3925 4.375 0.7225 4.375 1.0625 C2.395 1.3925 0.415 1.7225 -1.625 2.0625 C1.675 2.3925 4.975 2.7225 8.375 3.0625 C8.375 3.3925 8.375 3.7225 8.375 4.0625 C2.435 4.0625 -3.505 4.0625 -9.625 4.0625 C-6.01410907 0.45160907 -4.88448801 -0.0697784 0 0 Z " fill="#28EDF1" transform="translate(363.625,144.9375)"/>
<path d="M0 0 C-0.99 0.33 -1.98 0.66 -3 1 C-3 1.66 -3 2.32 -3 3 C-10.33763707 4.17402193 -17.58165418 4.09377123 -25 4 C-25 3.67 -25 3.34 -25 3 C-24.13117188 2.95101563 -23.26234375 2.90203125 -22.3671875 2.8515625 C-21.21476562 2.77679688 -20.06234375 2.70203125 -18.875 2.625 C-17.16957031 2.52058594 -17.16957031 2.52058594 -15.4296875 2.4140625 C-9.96958854 1.7548706 -5.6024888 -0.26678518 0 0 Z " fill="#17EDF4" transform="translate(289,285)"/>
<path d="M0 0 C0 0.66 0 1.32 0 2 C-0.66 2 -1.32 2 -2 2 C-2.33 2.99 -2.66 3.98 -3 5 C-4.92578125 5.984375 -4.92578125 5.984375 -7.3125 6.75 C-8.09238281 7.01296875 -8.87226563 7.2759375 -9.67578125 7.546875 C-12.16921091 8.03298902 -13.6181897 7.80665429 -16 7 C-13.71070947 5.82845707 -11.41881638 4.66261926 -9.125 3.5 C-8.47402344 3.16613281 -7.82304687 2.83226562 -7.15234375 2.48828125 C-2.2265625 0 -2.2265625 0 0 0 Z " fill="#44E1DF" transform="translate(299,253)"/>
<path d="M0 0 C0.99 0 1.98 0 3 0 C3 0.66 3 1.32 3 2 C2.34 2 1.68 2 1 2 C0.95875 2.598125 0.9175 3.19625 0.875 3.8125 C0 6 0 6 -2.9375 7.75 C-6 9 -6 9 -8 9 C-7.67 7.68 -7.34 6.36 -7 5 C-6.01 5 -5.02 5 -4 5 C-4 4.34 -4 3.68 -4 3 C-3.01 3 -2.02 3 -1 3 C-0.67 2.01 -0.34 1.02 0 0 Z " fill="#2EEDEA" transform="translate(359,227)"/>
<path d="M0 0 C-1.76731449 1.3172344 -3.53897761 2.62863588 -5.3125 3.9375 C-6.29863281 4.66839844 -7.28476562 5.39929688 -8.30078125 6.15234375 C-11 8 -11 8 -14 9 C-14 8.34 -14 7.68 -14 7 C-13.34 7 -12.68 7 -12 7 C-12 6.01 -12 5.02 -12 4 C-10.390625 2.578125 -10.390625 2.578125 -8.25 1.25 C-7.55390625 0.80140625 -6.8578125 0.3528125 -6.140625 -0.109375 C-3.61526236 -1.16007332 -2.52143975 -0.93134261 0 0 Z " fill="#45CFE5" transform="translate(336,220)"/>
<path d="M0 0 C0.66 0 1.32 0 2 0 C2 1.65 2 3.3 2 5 C1.34 5 0.68 5 0 5 C-0.33 6.32 -0.66 7.64 -1 9 C-2.32 9 -3.64 9 -5 9 C-5 9.66 -5 10.32 -5 11 C-5.66 10.67 -6.32 10.34 -7 10 C-6.54625 9.608125 -6.0925 9.21625 -5.625 8.8125 C-3.72065977 6.68842821 -3.01758277 4.64571519 -2 2 C-1.34 1.34 -0.68 0.68 0 0 Z " fill="#31D3F4" transform="translate(349,201)"/>
<path d="M0 0 C0.99 0.66 1.98 1.32 3 2 C3 2.66 3 3.32 3 4 C1.8553125 4.1546875 1.8553125 4.1546875 0.6875 4.3125 C-2.17059424 5.04364039 -3.15742885 5.76951913 -5 8 C-4.67 8.66 -4.34 9.32 -4 10 C-4.66 10.66 -5.32 11.32 -6 12 C-6.66 12 -7.32 12 -8 12 C-8 10.68 -8 9.36 -8 8 C-8.66 7.67 -9.32 7.34 -10 7 C-8.906875 6.401875 -7.81375 5.80375 -6.6875 5.1875 C-4.08925871 3.70955303 -1.95650507 2.30177067 0 0 Z " fill="#B444F4" transform="translate(188,131)"/>
<path d="M0 0 C0.66 0 1.32 0 2 0 C1.814375 1.19625 1.62875 2.3925 1.4375 3.625 C0.9688803 7.28283707 1.18518987 10.37862166 2 14 C0.35 14.33 -1.3 14.66 -3 15 C-3 13.02 -3 11.04 -3 9 C-2.34 9 -1.68 9 -1 9 C-1.020625 7.88625 -1.04125 6.7725 -1.0625 5.625 C-1 2 -1 2 0 0 Z " fill="#45B8F3" transform="translate(246,231)"/>
<path d="M0 0 C1.98 0 3.96 0 6 0 C-5.53846154 10 -5.53846154 10 -11 10 C-11 9.34 -11 8.68 -11 8 C-5.25 5 -5.25 5 -3 5 C-3.33 4.01 -3.66 3.02 -4 2 C-2.68 2 -1.36 2 0 2 C0 1.34 0 0.68 0 0 Z " fill="#4FCDDF" transform="translate(316,229)"/>
<path d="M0 0 C5.2584002 0.67415387 10.02638346 2.24265549 15 4 C15 4.66 15 5.32 15 6 C15.99 6.33 16.98 6.66 18 7 C17.01 7.495 17.01 7.495 16 8 C13.23325418 6.92664301 10.56805742 5.79739939 7.875 4.5625 C7.12089844 4.22412109 6.36679688 3.88574219 5.58984375 3.53710938 C3.72340669 2.69839399 1.8612857 1.85008607 0 1 C0 0.67 0 0.34 0 0 Z " fill="#46E3E4" transform="translate(212,327)"/>
<path d="M0 0 C5.15171623 -0.09038099 9.91913204 0.15318867 15 1 C15 1.99 15 2.98 15 4 C9.72684667 3.5547115 4.98229776 2.91626837 0 1 C0 0.67 0 0.34 0 0 Z " fill="#3BE5E7" transform="translate(231,335)"/>
<path d="M0 0 C0 3.96 0 7.92 0 12 C-1.65 12 -3.3 12 -5 12 C-4.34 11.67 -3.68 11.34 -3 11 C-3.185625 9.906875 -3.37125 8.81375 -3.5625 7.6875 C-4 4 -4 4 -3 1 C-1 0 -1 0 0 0 Z " fill="#609EF9" transform="translate(160,251)"/>
<path d="M0 0 C0.66 0 1.32 0 2 0 C0.56835889 3.65938172 -0.98934296 7.23988068 -2.625 10.8125 C-3.29402344 12.27623047 -3.29402344 12.27623047 -3.9765625 13.76953125 C-4.31429687 14.50558594 -4.65203125 15.24164063 -5 16 C-5.66 15.67 -6.32 15.34 -7 15 C-5.35544513 9.39356295 -3.66043672 4.60506555 0 0 Z " fill="#7C77D2" transform="translate(213,181)"/>
<path d="M0 0 C1.32 0 2.64 0 4 0 C4 0.66 4 1.32 4 2 C6.64 2.33 9.28 2.66 12 3 C12 3.33 12 3.66 12 4 C5.78675502 4.73030908 0.15901243 5.23180249 -6 4 C-5.34 3.34 -4.68 2.68 -4 2 C-2.68 2 -1.36 2 0 2 C0 1.34 0 0.68 0 0 Z " fill="#61D9E3" transform="translate(343,147)"/>
<path d="M0 0 C0.66 0.33 1.32 0.66 2 1 C0.00839528 4.98320944 -5.26517884 6.16042653 -9.25 7.75 C-11.10625 8.36875 -11.10625 8.36875 -13 9 C-13.66 8.67 -14.32 8.34 -15 8 C-12.54665445 6.63603538 -10.08808766 5.28365831 -7.625 3.9375 C-6.92632812 3.54755859 -6.22765625 3.15761719 -5.5078125 2.75585938 C-3.70389816 1.77584822 -1.85416518 0.88124929 0 0 Z " fill="#46E3E4" transform="translate(315,244)"/>
<path d="M0 0 C0.66 0.33 1.32 0.66 2 1 C-3.91684902 8.68490153 -3.91684902 8.68490153 -8.4375 10 C-9.283125 10 -10.12875 10 -11 10 C-7.50640535 6.40365256 -3.88901869 3.16548033 0 0 Z " fill="#39DEDF" transform="translate(361,213)"/>
<path d="M0 0 C0.99 0.33 1.98 0.66 3 1 C-0.88026891 5.24404412 -5.04254346 8.10917547 -10 11 C-9.34 9.68 -8.68 8.36 -8 7 C-7.34 7 -6.68 7 -6 7 C-5.7525 6.401875 -5.505 5.80375 -5.25 5.1875 C-3.80517427 2.65905497 -2.51719455 1.44929383 0 0 Z " fill="#1DF4F1" transform="translate(367,210)"/>
<path d="M0 0 C-0.56959153 3.62613199 -1.92374534 5.25517741 -4.5625 7.75 C-5.52349609 8.67039063 -5.52349609 8.67039063 -6.50390625 9.609375 C-6.99761719 10.06828125 -7.49132812 10.5271875 -8 11 C-8.33 10.01 -8.66 9.02 -9 8 C-7.63671875 5.95703125 -7.63671875 5.95703125 -5.6875 3.8125 C-5.05199219 3.09707031 -4.41648438 2.38164062 -3.76171875 1.64453125 C-2 0 -2 0 0 0 Z " fill="#9C50D5" transform="translate(180,139)"/>
<path d="M0 0 C1.32 0.33 2.64 0.66 4 1 C3.505 1.433125 3.01 1.86625 2.5 2.3125 C0.66781808 3.99740483 0.66781808 3.99740483 1 7 C-0.32 7 -1.64 7 -3 7 C-4.7511573 8.4166747 -4.7511573 8.4166747 -6 10 C-6.99 9.67 -7.98 9.34 -9 9 C-8.43410156 8.51789063 -7.86820313 8.03578125 -7.28515625 7.5390625 C-6.55167969 6.90742187 -5.81820312 6.27578125 -5.0625 5.625 C-4.33160156 4.99851562 -3.60070312 4.37203125 -2.84765625 3.7265625 C-0.91619094 2.12252286 -0.91619094 2.12252286 0 0 Z " fill="#B744F4" transform="translate(198,121)"/>
<path d="M0 0 C-0.33 0.66 -0.66 1.32 -1 2 C-2.66666667 2.33333333 -4.33333333 2.66666667 -6 3 C-6.33 3.66 -6.66 4.32 -7 5 C-8.65 5 -10.3 5 -12 5 C-5.5 -1.96428571 -5.5 -1.96428571 0 0 Z " fill="#5BA1E1" transform="translate(278,197)"/>
<path d="M0 0 C1.1446875 0.2475 1.1446875 0.2475 2.3125 0.5 C5.03596236 1.09145396 5.03596236 1.09145396 8 1 C3.69230769 4.93846154 3.69230769 4.93846154 0.1875 5.25 C-0.534375 5.1675 -1.25625 5.085 -2 5 C-1.34 3.35 -0.68 1.7 0 0 Z " fill="#27D8FB" transform="translate(288,240)"/>
<path d="M0 0 C2.31 0 4.62 0 7 0 C4.61874536 2.38125464 2.66142433 3.00186241 -0.5 4.125 C-1.4796875 4.47820312 -2.459375 4.83140625 -3.46875 5.1953125 C-6 6 -6 6 -8 6 C-8 5.34 -8 4.68 -8 4 C-5.09399739 2.74335022 -3.20395416 2 0 2 C0 1.34 0 0.68 0 0 Z " fill="#48E5E4" transform="translate(266,275)"/>
<path d="M0 0 C6.27 0 12.54 0 19 0 C19.33 0.99 19.66 1.98 20 3 C13.4 2.34 6.8 1.68 0 1 C0 0.67 0 0.34 0 0 Z " fill="#64BCD3" transform="translate(333,191)"/>
<path d="M0 0 C0.66 0 1.32 0 2 0 C0.49087042 4.98012761 -2.55661849 8.24259942 -6 12 C-7 10 -7 10 -6.1875 7.5 C-5 5 -5 5 -3 3 C-2.01 3 -1.02 3 0 3 C0 2.01 0 1.02 0 0 Z " fill="#3EE4E0" transform="translate(416,179)"/>
<path d="M0 0 C0.66 0.33 1.32 0.66 2 1 C-2.14285714 7.42857143 -2.14285714 7.42857143 -5 10 C-5.66 9.67 -6.32 9.34 -7 9 C-6.34 8.34 -5.68 7.68 -5 7 C-4.60235737 5.01178687 -4.26224651 3.01055661 -4 1 C-3.01 1 -2.02 1 -1 1 C-0.67 0.67 -0.34 0.34 0 0 Z " fill="#AE4CEE" transform="translate(174,147)"/>
<path d="M0 0 C1.32 0 2.64 0 4 0 C3.67 2.97 3.34 5.94 3 9 C1.68 9.33 0.36 9.66 -1 10 C-0.67 6.7 -0.34 3.4 0 0 Z " fill="#7486F4" transform="translate(345,109)"/>
<path d="M0 0 C-0.3125 1.875 -0.3125 1.875 -1 4 C-4 6 -4 6 -7 6 C-6.75 4.125 -6.75 4.125 -6 2 C-3.85331506 0.61504198 -2.56128588 0 0 0 Z " fill="#31EEEA" transform="translate(349,311)"/>
<path d="M0 0 C0 0.99 0 1.98 0 3 C-2.64 3 -5.28 3 -8 3 C-8.33 2.01 -8.66 1.02 -9 0 C-5.52176885 -1.15941038 -3.54104422 -0.70820884 0 0 Z " fill="#66BDDE" transform="translate(336,151)"/>
<path d="M0 0 C0.99 0.33 1.98 0.66 3 1 C4.1875 4.0625 4.1875 4.0625 5 7 C2.525 8.485 2.525 8.485 0 10 C-0.33 9.01 -0.66 8.02 -1 7 C-0.01 6.01 0.98 5.02 2 4 C1.01 3.67 0.02 3.34 -1 3 C-0.67 2.01 -0.34 1.02 0 0 Z " fill="#47B8F8" transform="translate(209,252)"/>
<path d="M0 0 C0.309375 0.639375 0.61875 1.27875 0.9375 1.9375 C4.09768575 5.09768575 7.68333908 4.81900793 12 5 C12 5.33 12 5.66 12 6 C10.18885568 6.36103536 8.37603177 6.71365504 6.5625 7.0625 C5.55316406 7.25972656 4.54382813 7.45695313 3.50390625 7.66015625 C2.67761719 7.77230469 1.85132813 7.88445312 1 8 C0 7 0 7 -0.0625 3.4375 C-0.041875 2.303125 -0.02125 1.16875 0 0 Z " fill="#50B1D9" transform="translate(242,240)"/>
<path d="M0 0 C0.66 0.33 1.32 0.66 2 1 C2 4 2 4 0.6875 5.38671875 C-0.875 6.59114583 -2.4375 7.79557292 -4 9 C-4.66 8.67 -5.32 8.34 -6 8 C-5.34 7.34 -4.68 6.68 -4 6 C-3.7834375 5.01 -3.7834375 5.01 -3.5625 4 C-3 2 -3 2 0 0 Z " fill="#38E9E7" transform="translate(391,204)"/>
<path d="M0 0 C4.97093824 0.41153737 9.44508386 0.79600832 14 3 C10.52487282 4.15837573 8.86329714 3.77265943 5.3125 3.0625 C4.31863281 2.86785156 3.32476562 2.67320312 2.30078125 2.47265625 C1.54152344 2.31667969 0.78226562 2.16070312 0 2 C0 1.34 0 0.68 0 0 Z " fill="#4CE0DE" transform="translate(400,143)"/>
<path d="M0 0 C0 0.66 0 1.32 0 2 C-1.65 2.33 -3.3 2.66 -5 3 C-5.33 3.99 -5.66 4.98 -6 6 C-8.31 6.33 -10.62 6.66 -13 7 C-4.25 0 -4.25 0 0 0 Z " fill="#9F53C7" transform="translate(220,108)"/>
<path d="M0 0 C-5.18082051 3.34594658 -8.84777564 4.56826496 -15 5 C-11.55014028 1.85012808 -4.53875449 -2.26937725 0 0 Z " fill="#9B58C7" transform="translate(236,103)"/>
<path d="M0 0 C0.9075 0.309375 1.815 0.61875 2.75 0.9375 C2.75 1.2675 2.75 1.5975 2.75 1.9375 C1.31344146 2.01881463 -0.1244483 2.07683559 -1.5625 2.125 C-2.76326172 2.17720703 -2.76326172 2.17720703 -3.98828125 2.23046875 C-6.72851584 1.87551608 -7.54171079 1.04383718 -9.25 -1.0625 C-5.96743794 -2.70378103 -3.38842062 -1.10775289 0 0 Z " fill="#1AF5F5" transform="translate(236.25,333.0625)"/>
<path d="M0 0 C-4.83646298 3.22430866 -7.26939984 3.09242903 -13 3 C-9.19777044 -0.80222956 -5.07002404 -1.49118354 0 0 Z " fill="#3AE7E8" transform="translate(245,278)"/>
<path d="M0 0 C-2.87164566 2.70272533 -4.30991841 3.94791837 -8.3125 4.25 C-9.199375 4.1675 -10.08625 4.085 -11 4 C-11 3.01 -11 2.02 -11 1 C-7.26562152 0.12132271 -3.83225427 -0.08912219 0 0 Z " fill="#42E1E3" transform="translate(359,145)"/>
<path d="M0 0 C2.31 1.65 4.62 3.3 7 5 C6.67 5.99 6.34 6.98 6 8 C2.97984943 6.99328314 1.90683422 6.451644 0 4 C0 2.68 0 1.36 0 0 Z " fill="#56BFD3" transform="translate(224,267)"/>
<path d="M0 0 C0.66 0.33 1.32 0.66 2 1 C0.08864614 4.53600465 -1.62642766 6.78972846 -5 9 C-5.66 8.67 -6.32 8.34 -7 8 C-5.75 5.5 -5.75 5.5 -4 3 C-2.68 3 -1.36 3 0 3 C0 2.01 0 1.02 0 0 Z " fill="#1CF4F1" transform="translate(387,190)"/>
<path d="M0 0 C0 0.33 0 0.66 0 1 C-6.93 2.485 -6.93 2.485 -14 4 C-14 3.01 -14 2.02 -14 1 C-9.23692563 0.04738513 -4.8333472 -0.08333357 0 0 Z " fill="#8177D2" transform="translate(260,153)"/>
<path d="M0 0 C0.66 0.33 1.32 0.66 2 1 C1.67 2.32 1.34 3.64 1 5 C-0.32 4.67 -1.64 4.34 -3 4 C-3.33 4.66 -3.66 5.32 -4 6 C-4.33 4.68 -4.66 3.36 -5 2 C-2.625 0.9375 -2.625 0.9375 0 0 Z " fill="#BB45FC" transform="translate(231,106)"/>
<path d="M0 0 C2.64 0.33 5.28 0.66 8 1 C8.33 1.99 8.66 2.98 9 4 C5.625 3.6875 5.625 3.6875 2 3 C1.34 2.01 0.68 1.02 0 0 Z " fill="#1AF5F5" transform="translate(139,293)"/>
<path d="M0 0 C0.66 0.33 1.32 0.66 2 1 C2.625 4.0625 2.625 4.0625 3 7 C2.01 7.33 1.02 7.66 0 8 C-1.4606285 5.35261084 -2 4.10551666 -2 1 C-1.34 0.67 -0.68 0.34 0 0 Z " fill="#4DB0F8" transform="translate(165,271)"/>
<path d="M0 0 C0.99 0.33 1.98 0.66 3 1 C2 3 1 5 0 7 C-1.32 6.34 -2.64 5.68 -4 5 C-2.68 3.35 -1.36 1.7 0 0 Z " fill="#15F9F8" transform="translate(336,233)"/>
<path d="M0 0 C0.33 0.99 0.66 1.98 1 3 C-1.93828597 5.50298434 -4.17902761 6.46930939 -8 7 C-5.42215154 4.35247996 -3.08351902 2.05567935 0 0 Z " fill="#3EE0DD" transform="translate(348,223)"/>
<path d="M0 0 C0.66 0 1.32 0 2 0 C1.44687265 4.02992782 0.8441938 8.02022924 0 12 C-0.33 12 -0.66 12 -1 12 C-0.979375 10.88625 -0.95875 9.7725 -0.9375 8.625 C-0.73619282 5.16784079 -0.73619282 5.16784079 -2 3 C-1.34 2.01 -0.68 1.02 0 0 Z " fill="#8C66EC" transform="translate(152,190)"/>
<path d="M0 0 C0.99 1.32 1.98 2.64 3 4 C2.01 4.33 1.02 4.66 0 5 C0 5.99 0 6.98 0 8 C-0.99 7.67 -1.98 7.34 -3 7 C-2.01 4.69 -1.02 2.38 0 0 Z " fill="#9D60FA" transform="translate(156,183)"/>
<path d="M0 0 C3.82352106 1.5577308 6.29205593 3.91595258 9 7 C9 7.99 9 8.98 9 10 C7.49702124 8.52386015 5.99768715 7.04400843 4.5 5.5625 C3.6646875 4.73878906 2.829375 3.91507812 1.96875 3.06640625 C0 1 0 1 0 0 Z " fill="#4DC2D8" transform="translate(180,302)"/>
<path d="M0 0 C0.66 0 1.32 0 2 0 C2 0.66 2 1.32 2 2 C2.66 2.33 3.32 2.66 4 3 C2.625 5 2.625 5 1 7 C0.34 7 -0.32 7 -1 7 C-0.67 4.69 -0.34 2.38 0 0 Z " fill="#0FF5F9" transform="translate(298,276)"/>
<path d="M0 0 C0.99 0.33 1.98 0.66 3 1 C3 2.65 3 4.3 3 6 C1.68 6.33 0.36 6.66 -1 7 C-1 4.37886292 -0.68707555 2.49064888 0 0 Z " fill="#3BC5FB" transform="translate(208,272)"/>
<path d="M0 0 C0.33 0.99 0.66 1.98 1 3 C0.34 3 -0.32 3 -1 3 C-1 3.66 -1 4.32 -1 5 C-2.98 5 -4.96 5 -7 5 C-7 4.34 -7 3.68 -7 3 C-5.1875 1.9375 -5.1875 1.9375 -3 1 C-2.01 1.33 -1.02 1.66 0 2 C0 1.34 0 0.68 0 0 Z " fill="#2ED3F6" transform="translate(323,224)"/>
<path d="M0 0 C0 0.66 0 1.32 0 2 C-1.28913487 2.67154933 -2.58140204 3.33708859 -3.875 4 C-4.59429687 4.37125 -5.31359375 4.7425 -6.0546875 5.125 C-8 6 -8 6 -10 6 C-10 5.34 -10 4.68 -10 4 C-3.375 0 -3.375 0 0 0 Z " fill="#8072D1" transform="translate(245,156)"/>
<path d="M0 0 C0.66 0 1.32 0 2 0 C0.74194623 4.50802601 -0.90407165 7.4912812 -4 11 C-3.67 9.02 -3.34 7.04 -3 5 C-2.34 5 -1.68 5 -1 5 C-0.67 3.35 -0.34 1.7 0 0 Z " fill="#7287CE" transform="translate(346,118)"/>
<path d="M0 0 C1.8125 0.125 1.8125 0.125 4 1 C5.75 4.0625 5.75 4.0625 7 7 C5.35 6.67 3.7 6.34 2 6 C1.34 4.02 0.68 2.04 0 0 Z " fill="#14EDF8" transform="translate(211,321)"/>
<path d="M0 0 C1.98 0 3.96 0 6 0 C5.01 0.66 4.02 1.32 3 2 C4.32 2.66 5.64 3.32 7 4 C5.02 4.66 3.04 5.32 1 6 C0.67 4.02 0.34 2.04 0 0 Z " fill="#42DBE7" transform="translate(252,281)"/>
<path d="M0 0 C1.32 0 2.64 0 4 0 C3.67 0.99 3.34 1.98 3 3 C-0.5625 4.1875 -0.5625 4.1875 -4 5 C-4 4.34 -4 3.68 -4 3 C-3.01 3 -2.02 3 -1 3 C-0.67 2.01 -0.34 1.02 0 0 Z " fill="#3FE9E3" transform="translate(292,264)"/>
<path d="M0 0 C0.99 0.33 1.98 0.66 3 1 C3.66 4.3 4.32 7.6 5 11 C2.09591658 7.12788877 1.14920536 4.59682146 0 0 Z " fill="#6898E6" transform="translate(156,263)"/>
<path d="M0 0 C0.99 0.33 1.98 0.66 3 1 C0.36 2.98 -2.28 4.96 -5 7 C-5 4 -5 4 -3 2 C-2.01 2 -1.02 2 0 2 C0 1.34 0 0.68 0 0 Z " fill="#44E1E1" transform="translate(382,213)"/>
<path d="M0 0 C0 0.66 0 1.32 0 2 C-0.66 2 -1.32 2 -2 2 C-2.33 2.99 -2.66 3.98 -3 5 C-4.32 4.67 -5.64 4.34 -7 4 C-3.17391304 0 -3.17391304 0 0 0 Z " fill="#3DE7EB" transform="translate(299,253)"/>
<path d="M0 0 C2.97 0.495 2.97 0.495 6 1 C5.67 1.99 5.34 2.98 5 4 C3.02 4 1.04 4 -1 4 C-0.67 2.68 -0.34 1.36 0 0 Z " fill="#2DD3FB" transform="translate(280,241)"/>
<path d="M0 0 C1.485 0.99 1.485 0.99 3 2 C2.625 4.4375 2.625 4.4375 2 7 C1.01 7.495 1.01 7.495 0 8 C0 5.36 0 2.72 0 0 Z " fill="#1BF7F3" transform="translate(397,164)"/>
<path d="M0 0 C0 0.33 0 0.66 0 1 C-6.0546875 1.9765625 -6.0546875 1.9765625 -8 2 C-8.66 1.34 -9.32 0.68 -10 0 C-6.30581799 -1.231394 -3.7943739 -0.64432764 0 0 Z " fill="#1AF7FA" transform="translate(187,295)"/>
<path d="M0 0 C-2.35968744 2.09749995 -3.54616994 2.96905704 -6.75 3.1875 C-7.86375 3.0946875 -7.86375 3.0946875 -9 3 C-9 2.34 -9 1.68 -9 1 C-6.04335481 -0.4783226 -3.25770263 -0.06032783 0 0 Z " fill="#2BD5F6" transform="translate(313,233)"/>
<path d="M0 0 C3.79588866 0.54226981 5.47211993 2.20127563 8 5 C7.67 5.66 7.34 6.32 7 7 C5.2925002 5.71937515 3.62626404 4.38232443 2 3 C2 2.34 2 1.68 2 1 C1.34 0.67 0.68 0.34 0 0 Z " fill="#21F0F5" transform="translate(387,152)"/>
<path d="M0 0 C0.33 0.99 0.66 1.98 1 3 C0.34 3 -0.32 3 -1 3 C-1.33 4.32 -1.66 5.64 -2 7 C-2.66 6.67 -3.32 6.34 -4 6 C-3.6875 4.125 -3.6875 4.125 -3 2 C-2.01 1.34 -1.02 0.68 0 0 Z " fill="#718EF4" transform="translate(344,120)"/>
</svg>
